<svg xmlns="http://www.w3.org/2000/svg" viewBox="0 0 1080 1920" width="1080" height="1920" font-family="Manrope, Arial, sans-serif">
  <!-- Nudge — Day 7 (one-thing) static cover. Facebook image / TikTok thumbnail. -->
  <rect width="1080" height="1920" fill="#F8F7F4"/>
  <rect x="378" y="70" width="60" height="60" rx="17" fill="#7BAA94"/>
  <text x="408" y="114" font-size="38" font-weight="800" fill="#FFFFFF" text-anchor="middle">n</text>
  <text x="456" y="114" font-size="36" font-weight="800" fill="#232A32">nudge</text>

  <text x="540" y="246" font-size="56" font-weight="800" fill="#232A32" text-anchor="middle">What's the ONE thing</text>
  <text x="540" y="314" font-size="56" font-weight="800" fill="#232A32" text-anchor="middle">you always forget?</text>

  <g transform="rotate(-3 540 640)">
    <rect x="290" y="450" width="500" height="380" rx="14" fill="#FFFFFF" stroke="#E9E9E3" stroke-width="2"/>
    <rect x="290" y="450" width="500" height="76" rx="14" fill="#EDF2EF"/>
    <text x="320" y="500" font-size="26" font-weight="800" fill="#3C5A4C">USUAL SUSPECTS</text>
    <text x="320" y="540" font-size="26" fill="#232A32">Birthdays</text>
    <text x="320" y="586" font-size="26" fill="#232A32">Bin day</text>
    <text x="320" y="632" font-size="26" fill="#232A32">Renewals</text>
    <text x="320" y="678" font-size="26" fill="#232A32">That 'starred' email</text>
    
  </g>

  <text x="540" y="910" font-size="40" font-weight="800" fill="#7BAA94" text-anchor="middle">Comment below ↓</text>
  
  <rect x="120" y="970" width="840" height="170" rx="20" fill="#FFFFFF" stroke="#E9E9E3" stroke-width="2"/>
  <text x="160" y="1056" font-size="40" font-weight="800" fill="#232A32">Drop it in the comments</text>
  <text x="160" y="1104" font-size="27" fill="#667085">I'll show you the Nudge for it</text>
  <rect x="742" y="1020" width="168" height="70" rx="14" fill="#7BAA94"/>
  <text x="826" y="1067" font-size="30" font-weight="800" fill="#FFFFFF" text-anchor="middle">YOU?</text>
  
  <rect x="90" y="1470" width="900" height="300" rx="26" fill="#232A32"/>
  <text x="540" y="1556" font-size="30" font-weight="700" fill="#9FD3BD" text-anchor="middle" letter-spacing="2">LAUNCH OFFER</text>
  <text x="540" y="1622" font-size="40" font-weight="800" fill="#FFFFFF" text-anchor="middle">First 10 to register interest</text>
  <text x="540" y="1680" font-size="44" font-weight="800" fill="#9FD3BD" text-anchor="middle">get Nudge Pro FREE for life</text>
  <text x="540" y="1742" font-size="34" font-weight="700" fill="#FFFFFF" text-anchor="middle">nudgelive.co.uk · link in bio</text>
</svg>
