<svg xmlns="http://www.w3.org/2000/svg" viewBox="0 0 1080 1920" width="1080" height="1920" font-family="Inter, Arial, sans-serif">
  <!-- Nudge — Day 6 (forward-email): animated 9:16, loops 14s. Screen-record full-screen on a phone. -->
  <rect width="1080" height="1920" fill="#F8F7F4"/>
  <g transform="translate(475.0,67.0) scale(0.499)"><path d="M 16 16 L 50 16 A 34 34 0 0 1 84 50 L 84 84 L 50 84 A 34 34 0 0 1 16 50 Z" fill="none" stroke="#7BAA94" stroke-width="8" stroke-linejoin="round" stroke-linecap="round"/><text x="45" y="64" font-size="44" font-weight="700" fill="#232A32" text-anchor="middle">n</text><circle cx="64" cy="59" r="5.5" fill="#F5B52E"/></g><text x="540" y="104" font-size="34" font-weight="800" fill="#232A32">nudge</text>
  <g opacity="0"><animate attributeName="opacity" values="0;0;1;1" keyTimes="0;0.03;0.07;1" dur="14s" repeatCount="indefinite"/><animateTransform attributeName="transform" type="translate" values="0 26;0 26;0 0;0 0" keyTimes="0;0.03;0.07;1" dur="14s" repeatCount="indefinite"/><text x="540" y="280" font-size="66" font-weight="800" fill="#232A32" text-anchor="middle">Forward your chaos</text>
  <text x="540" y="360" font-size="66" font-weight="800" fill="#232A32" text-anchor="middle">to a robot. Watch.</text></g>
  <g opacity="0"><animate attributeName="opacity" values="0;0;1;1" keyTimes="0;0.1;0.18;1" dur="14s" repeatCount="indefinite"/><animateTransform attributeName="transform" type="translate" values="0 26;0 26;0 0;0 0" keyTimes="0;0.1;0.18;1" dur="14s" repeatCount="indefinite"/><rect x="150" y="700" width="300" height="200" rx="16" fill="#FFFFFF" stroke="#E9E9E3" stroke-width="3"/><path d="M 150 716 L 300 820 L 450 716" fill="none" stroke="#7BAA94" stroke-width="6"/><text x="300" y="880" font-size="24" font-weight="700" fill="#667085" text-anchor="middle">FWD: booking</text></g>
  <g opacity="0"><animate attributeName="opacity" values="0;0;1;1" keyTimes="0;0.42;0.5;1" dur="14s" repeatCount="indefinite"/><animateTransform attributeName="transform" type="translate" values="0 26;0 26;0 0;0 0" keyTimes="0;0.42;0.5;1" dur="14s" repeatCount="indefinite"/><path d="M 478 800 l 70 0 M 522 778 l 28 22 l -28 22" fill="none" stroke="#7BAA94" stroke-width="9" stroke-linecap="round" stroke-linejoin="round"/><rect x="630" y="700" width="300" height="200" rx="16" fill="#FFFFFF" stroke="#E9E9E3" stroke-width="3"/><circle cx="690" cy="770" r="22" fill="none" stroke="#7BAA94" stroke-width="5"/><path d="M 676 770 l 9 11 l 19 -23" fill="none" stroke="#7BAA94" stroke-width="7" stroke-linecap="round" stroke-linejoin="round"/><text x="724" y="782" font-size="28" font-weight="800" fill="#232A32">Dinner</text><text x="660" y="850" font-size="24" fill="#667085">Fri · 7:30pm</text><text x="540" y="1120" font-size="34" font-weight="800" fill="#7BAA94" text-anchor="middle">the what, when &amp; where — pulled out</text></g>
  <g opacity="0"><animate attributeName="opacity" values="0;0;1;1" keyTimes="0;0.78;0.84;1" dur="14s" repeatCount="indefinite"/><animateTransform attributeName="transform" type="translate" values="0 26;0 26;0 0;0 0" keyTimes="0;0.78;0.84;1" dur="14s" repeatCount="indefinite"/><rect x="90" y="1670" width="900" height="150" rx="28" fill="#232A32"/><text x="540" y="1734" font-size="34" font-weight="800" fill="#ECE6D6" text-anchor="middle">First 10 to register = Pro free for life</text><text x="540" y="1790" font-size="32" font-weight="800" fill="#E8A24A" text-anchor="middle">nudgelive.co.uk</text></g>
  <rect x="0" y="1900" width="0" height="20" fill="#7BAA94">
    <animate attributeName="width" values="0;1080" dur="14s" repeatCount="indefinite"/>
  </rect>
</svg>
