<svg xmlns="http://www.w3.org/2000/svg" viewBox="0 0 1080 1920" width="1080" height="1920" font-family="Inter, Arial, sans-serif">
  <!-- Nudge — Day 7 (one-thing) cover. Distinct bg + concept motif per day. -->
  <rect width="1080" height="1920" fill="#232A32"/>
  <g transform="translate(475.0,67.0) scale(0.499)"><path d="M 16 16 L 50 16 A 34 34 0 0 1 84 50 L 84 84 L 50 84 A 34 34 0 0 1 16 50 Z" fill="none" stroke="#7BAA94" stroke-width="8" stroke-linejoin="round" stroke-linecap="round"/><text x="45" y="64" font-size="44" font-weight="700" fill="#ECE6D6" text-anchor="middle">n</text><circle cx="64" cy="59" r="5.5" fill="#F5B52E"/></g><text x="540" y="104" font-size="34" font-weight="800" fill="#ECE6D6">nudge</text>
  <text x="540" y="280" font-size="66" font-weight="800" fill="#ECE6D6" text-anchor="middle">What's the ONE thing</text>
  <text x="540" y="360" font-size="66" font-weight="800" fill="#ECE6D6" text-anchor="middle">you always forget?</text>
  <text x="540" y="930" font-size="420" font-weight="800" fill="#E8A24A" text-anchor="middle">?</text><rect x="160" y="540" width="300" height="80" rx="40" fill="#FFFFFF"/><text x="310" y="592" font-size="30" font-weight="700" fill="#232A32" text-anchor="middle">bin day?</text><rect x="640" y="640" width="360" height="80" rx="40" fill="#FFFFFF"/><text x="820" y="692" font-size="30" font-weight="700" fill="#232A32" text-anchor="middle">that 'starred' email?</text><rect x="250" y="1040" width="340" height="80" rx="40" fill="#FFFFFF"/><text x="420" y="1092" font-size="30" font-weight="700" fill="#232A32" text-anchor="middle">renew the car tax?</text><text x="540" y="1230" font-size="34" font-weight="800" fill="#ECE6D6" text-anchor="middle">comment yours</text>
  <rect x="90" y="1640" width="900" height="210" rx="28" fill="#E8A24A"/><text x="540" y="1716" font-size="33" font-weight="800" fill="#232A32" text-anchor="middle">First 10 to register = Pro free for life</text><text x="540" y="1772" font-size="29" font-weight="700" fill="#1c232b" text-anchor="middle">then 3 months free for everyone else</text><text x="540" y="1822" font-size="31" font-weight="800" fill="#232A32" text-anchor="middle">nudgelive.co.uk</text>
</svg>
