<svg xmlns="http://www.w3.org/2000/svg" viewBox="0 0 1080 1920" width="1080" height="1920" font-family="Inter, Arial, sans-serif">
  <!-- Nudge — Day 3 (free-trial): animated 9:16, loops 14s. Screen-record full-screen on a phone. -->
  <rect width="1080" height="1920" fill="#232A32"/>
  <g transform="translate(475.0,67.0) scale(0.499)"><path d="M 16 16 L 50 16 A 34 34 0 0 1 84 50 L 84 84 L 50 84 A 34 34 0 0 1 16 50 Z" fill="none" stroke="#7BAA94" stroke-width="8" stroke-linejoin="round" stroke-linecap="round"/><text x="45" y="64" font-size="44" font-weight="700" fill="#ECE6D6" text-anchor="middle">n</text><circle cx="64" cy="59" r="5.5" fill="#F5B52E"/></g><text x="540" y="104" font-size="34" font-weight="800" fill="#ECE6D6">nudge</text>
  <g opacity="0"><animate attributeName="opacity" values="0;0;1;1" keyTimes="0;0.03;0.07;1" dur="14s" repeatCount="indefinite"/><animateTransform attributeName="transform" type="translate" values="0 26;0 26;0 0;0 0" keyTimes="0;0.03;0.07;1" dur="14s" repeatCount="indefinite"/><text x="540" y="280" font-size="66" font-weight="800" fill="#ECE6D6" text-anchor="middle">The “free” trial you</text>
  <text x="540" y="360" font-size="66" font-weight="800" fill="#ECE6D6" text-anchor="middle">forgot to cancel.</text></g>
  <g opacity="0"><animate attributeName="opacity" values="0;0;1;1" keyTimes="0;0.1;0.18;1" dur="14s" repeatCount="indefinite"/><animateTransform attributeName="transform" type="translate" values="0 26;0 26;0 0;0 0" keyTimes="0;0.1;0.18;1" dur="14s" repeatCount="indefinite"/><rect x="150" y="470" width="780" height="300" rx="26" fill="#FFFFFF" stroke="#E9E9E3" stroke-width="2"/><circle cx="220" cy="540" r="30" fill="#FBE0E1"/><text x="220" y="553" font-size="34" font-weight="800" fill="#E5484D" text-anchor="middle">£</text><text x="276" y="532" font-size="24" font-weight="800" fill="#E5484D" letter-spacing="1">PAYMENT TAKEN</text><text x="276" y="566" font-size="24" fill="#667085">ACME Pro · annual renewal</text><text x="190" y="680" font-size="92" font-weight="800" fill="#E5484D">– £79.00</text><text x="190" y="732" font-size="25" fill="#667085">…the 7-day trial you forgot to cancel</text></g>
  <g opacity="0"><animate attributeName="opacity" values="0;0;1;1" keyTimes="0;0.42;0.5;1" dur="14s" repeatCount="indefinite"/><animateTransform attributeName="transform" type="translate" values="0 26;0 26;0 0;0 0" keyTimes="0;0.42;0.5;1" dur="14s" repeatCount="indefinite"/><path d="M 540 800 l 0 60 M 518 836 l 22 26 l 22 -26" fill="none" stroke="#E8A24A" stroke-width="9" stroke-linecap="round" stroke-linejoin="round"/><rect x="150" y="900" width="780" height="200" rx="26" fill="#FFFFFF" stroke="#E9E9E3" stroke-width="2"/><circle cx="210" cy="972" r="22" fill="none" stroke="#7BAA94" stroke-width="5"/><path d="M 196 972 l 9 11 l 19 -23" fill="none" stroke="#7BAA94" stroke-width="7" stroke-linecap="round" stroke-linejoin="round"/><text x="250" y="984" font-size="34" font-weight="800" fill="#232A32">Cancel free trial</text><text x="190" y="1046" font-size="25" fill="#667085">nudge reminds you 2 days before it renews</text><rect x="700" y="934" width="200" height="54" rx="14" fill="#E8A24A"/><text x="800" y="971" font-size="22" font-weight="800" fill="#232A32" text-anchor="middle">HEADS-UP</text><text x="540" y="1190" font-size="34" font-weight="800" fill="#E8A24A" text-anchor="middle">Never auto-charged again.</text></g>
  <g opacity="0"><animate attributeName="opacity" values="0;0;1;1" keyTimes="0;0.78;0.84;1" dur="14s" repeatCount="indefinite"/><animateTransform attributeName="transform" type="translate" values="0 26;0 26;0 0;0 0" keyTimes="0;0.78;0.84;1" dur="14s" repeatCount="indefinite"/><rect x="90" y="1670" width="900" height="150" rx="28" fill="#E8A24A"/><text x="540" y="1734" font-size="34" font-weight="800" fill="#232A32" text-anchor="middle">First 10 to register = Pro free for life</text><text x="540" y="1790" font-size="32" font-weight="800" fill="#232A32" text-anchor="middle">nudgelive.co.uk</text></g>
  <rect x="0" y="1900" width="0" height="20" fill="#E8A24A">
    <animate attributeName="width" values="0;1080" dur="14s" repeatCount="indefinite"/>
  </rect>
</svg>
