<svg xmlns="http://www.w3.org/2000/svg" viewBox="0 0 1080 1920" width="1080" height="1920" font-family="Manrope, Arial, sans-serif">
  <!-- Nudge — Day 1 static cover (Facebook single image / TikTok thumbnail). 9:16. -->
  <rect width="1080" height="1920" fill="#F8F7F4"/>

  <!-- wordmark -->
  <g stroke="#F5B52E" stroke-width="4.319999999999999" stroke-linecap="round"><line x1="437.4" y1="100.0" x2="449.5" y2="100.0"/><line x1="435.1" y1="111.2" x2="446.3" y2="115.9"/><line x1="428.8" y1="120.8" x2="437.3" y2="129.3"/><line x1="419.2" y1="127.1" x2="423.9" y2="138.3"/><line x1="408.0" y1="129.4" x2="408.0" y2="141.5"/><line x1="396.8" y1="127.1" x2="392.1" y2="138.3"/><line x1="387.2" y1="120.8" x2="378.7" y2="129.3"/><line x1="380.9" y1="111.2" x2="369.7" y2="115.9"/><line x1="378.6" y1="100.0" x2="366.5" y2="100.0"/><line x1="380.9" y1="88.8" x2="369.7" y2="84.1"/><line x1="387.2" y1="79.2" x2="378.7" y2="70.7"/><line x1="396.8" y1="72.9" x2="392.1" y2="61.7"/><line x1="408.0" y1="70.6" x2="408.0" y2="58.5"/><line x1="419.2" y1="72.9" x2="423.9" y2="61.7"/><line x1="428.8" y1="79.2" x2="437.3" y2="70.7"/><line x1="435.1" y1="88.8" x2="446.3" y2="84.1"/></g><circle cx="408" cy="100" r="21.599999999999998" fill="#7BAA94"/><text x="408" y="111.3" font-family="Manrope, Arial, sans-serif" font-size="32" font-weight="800" fill="#FFFFFF" text-anchor="middle">n</text>
  <text x="463" y="110" font-size="36" font-weight="800" fill="#232A32">nudge</text>

  <!-- hook -->
  <text x="540" y="246" font-size="56" font-weight="800" fill="#232A32" text-anchor="middle">The school letter</text>
  <text x="540" y="314" font-size="56" font-weight="800" fill="#232A32" text-anchor="middle">that lived in your bag</text>
  <text x="540" y="382" font-size="56" font-weight="800" fill="#232A32" text-anchor="middle">for 3 days.</text>

  <!-- before: letter -->
  <g transform="rotate(-3 540 640)">
    <rect x="290" y="450" width="500" height="380" rx="14" fill="#FFFFFF" stroke="#E9E9E3" stroke-width="2"/>
    <rect x="290" y="450" width="500" height="76" rx="14" fill="#EDF2EF"/>
    <text x="320" y="500" font-size="26" font-weight="800" fill="#3C5A4C">OAKWOOD PRIMARY</text>
    <text x="320" y="576" font-size="26" fill="#232A32">PE kits needed <tspan font-weight="800">Friday</tspan>.</text>
    <text x="320" y="624" font-size="26" fill="#232A32">Trip — <tspan font-weight="800">£15 by 15 June</tspan>.</text>
    <text x="320" y="672" font-size="26" fill="#232A32">Parents' evening open…</text>
    <text x="320" y="760" font-size="24" fill="#9AA4AE" font-style="italic">just snap a photo →</text>
  </g>

  <!-- arrow -->
  <text x="540" y="940" font-size="40" font-weight="800" fill="#7BAA94" text-anchor="middle">Nudge reads it ↓</text>

  <!-- after: two tasks -->
  <rect x="120" y="990" width="840" height="180" rx="20" fill="#FFFFFF" stroke="#E9E9E3" stroke-width="2"/>
  <text x="160" y="1080" font-size="40" font-weight="800" fill="#232A32">Bring PE kit</text>
  <text x="160" y="1132" font-size="27" fill="#667085">Reminder before school</text>
  <rect x="760" y="1030" width="150" height="70" rx="14" fill="#7BAA94"/>
  <text x="835" y="1077" font-size="32" font-weight="800" fill="#FFFFFF" text-anchor="middle">FRI</text>

  <rect x="120" y="1200" width="840" height="180" rx="20" fill="#FFFFFF" stroke="#E9E9E3" stroke-width="2"/>
  <text x="160" y="1290" font-size="40" font-weight="800" fill="#232A32">Pay £15 trip</text>
  <text x="160" y="1342" font-size="27" fill="#667085">Due 15 June</text>
  <rect x="710" y="1240" width="200" height="70" rx="14" fill="#E8A24A"/>
  <text x="810" y="1287" font-size="30" font-weight="800" fill="#FFFFFF" text-anchor="middle">15 JUN</text>

  <!-- promo strip -->
  <rect x="90" y="1470" width="900" height="300" rx="26" fill="#232A32"/>
  <text x="540" y="1556" font-size="30" font-weight="700" fill="#9FD3BD" text-anchor="middle" letter-spacing="2">LAUNCH OFFER</text>
  <text x="540" y="1622" font-size="40" font-weight="800" fill="#FFFFFF" text-anchor="middle">First 10 to register interest</text>
  <text x="540" y="1680" font-size="44" font-weight="800" fill="#9FD3BD" text-anchor="middle">get Nudge Pro FREE for life</text>
  <text x="540" y="1742" font-size="34" font-weight="700" fill="#FFFFFF" text-anchor="middle">nudgelive.co.uk · link in bio</text>
</svg>
