<svg xmlns="http://www.w3.org/2000/svg" viewBox="0 0 1080 1920" width="1080" height="1920" font-family="Inter, Arial, sans-serif">
  <!-- Nudge — Day 5 (promo): animated 9:16, loops 14s. Screen-record full-screen on a phone. -->
  <rect width="1080" height="1920" fill="#161B21"/>
  <g transform="translate(475.0,67.0) scale(0.499)"><path d="M 16 16 L 50 16 A 34 34 0 0 1 84 50 L 84 84 L 50 84 A 34 34 0 0 1 16 50 Z" fill="none" stroke="#7BAA94" stroke-width="8" stroke-linejoin="round" stroke-linecap="round"/><text x="45" y="64" font-size="44" font-weight="700" fill="#ECE6D6" text-anchor="middle">n</text><circle cx="64" cy="59" r="5.5" fill="#F5B52E"/></g><text x="540" y="104" font-size="34" font-weight="800" fill="#ECE6D6">nudge</text>
  <g opacity="0"><animate attributeName="opacity" values="0;0;1;1" keyTimes="0;0.03;0.07;1" dur="14s" repeatCount="indefinite"/><animateTransform attributeName="transform" type="translate" values="0 26;0 26;0 0;0 0" keyTimes="0;0.03;0.07;1" dur="14s" repeatCount="indefinite"/><text x="540" y="280" font-size="66" font-weight="800" fill="#ECE6D6" text-anchor="middle">We're opening Nudge</text>
  <text x="540" y="360" font-size="66" font-weight="800" fill="#ECE6D6" text-anchor="middle">very soon.</text></g>
  <g opacity="0"><animate attributeName="opacity" values="0;0;1;1" keyTimes="0;0.1;0.18;1" dur="14s" repeatCount="indefinite"/><animateTransform attributeName="transform" type="translate" values="0 26;0 26;0 0;0 0" keyTimes="0;0.1;0.18;1" dur="14s" repeatCount="indefinite"/><text x="540" y="540" font-size="30" font-weight="800" fill="#AEB6BE" text-anchor="middle" letter-spacing="2">FOUNDER SPOTS · FIRST 10 ONLY</text><circle cx="180" cy="620" r="52" fill="#E8A24A"/><path d="M 166 620 l 9 11 l 19 -23" fill="none" stroke="#232A32" stroke-width="7" stroke-linecap="round" stroke-linejoin="round"/><circle cx="360" cy="620" r="52" fill="#E8A24A"/><path d="M 346 620 l 9 11 l 19 -23" fill="none" stroke="#232A32" stroke-width="7" stroke-linecap="round" stroke-linejoin="round"/><circle cx="540" cy="620" r="52" fill="#E8A24A"/><path d="M 526 620 l 9 11 l 19 -23" fill="none" stroke="#232A32" stroke-width="7" stroke-linecap="round" stroke-linejoin="round"/><circle cx="720" cy="620" r="52" fill="#E8A24A"/><path d="M 706 620 l 9 11 l 19 -23" fill="none" stroke="#232A32" stroke-width="7" stroke-linecap="round" stroke-linejoin="round"/><circle cx="900" cy="620" r="52" fill="#E8A24A"/><path d="M 886 620 l 9 11 l 19 -23" fill="none" stroke="#232A32" stroke-width="7" stroke-linecap="round" stroke-linejoin="round"/><circle cx="180" cy="770" r="52" fill="#E8A24A"/><path d="M 166 770 l 9 11 l 19 -23" fill="none" stroke="#232A32" stroke-width="7" stroke-linecap="round" stroke-linejoin="round"/><circle cx="360" cy="770" r="52" fill="#E8A24A"/><path d="M 346 770 l 9 11 l 19 -23" fill="none" stroke="#232A32" stroke-width="7" stroke-linecap="round" stroke-linejoin="round"/><circle cx="540" cy="770" r="52" fill="none" stroke="#ECE6D6" stroke-width="4" stroke-dasharray="9 9" opacity="0.8"/><text x="540" y="782" font-size="34" font-weight="800" fill="#ECE6D6" text-anchor="middle" opacity="0.8">?</text><circle cx="720" cy="770" r="52" fill="none" stroke="#ECE6D6" stroke-width="4" stroke-dasharray="9 9" opacity="0.8"/><text x="720" y="782" font-size="34" font-weight="800" fill="#ECE6D6" text-anchor="middle" opacity="0.8">?</text><circle cx="900" cy="770" r="52" fill="none" stroke="#ECE6D6" stroke-width="4" stroke-dasharray="9 9" opacity="0.8"/><text x="900" y="782" font-size="34" font-weight="800" fill="#ECE6D6" text-anchor="middle" opacity="0.8">?</text><text x="540" y="900" font-size="40" font-weight="800" fill="#E8A24A" text-anchor="middle">7 gone · 3 left</text></g>
  <g opacity="0"><animate attributeName="opacity" values="0;0;1;1" keyTimes="0;0.42;0.5;1" dur="14s" repeatCount="indefinite"/><animateTransform attributeName="transform" type="translate" values="0 26;0 26;0 0;0 0" keyTimes="0;0.42;0.5;1" dur="14s" repeatCount="indefinite"/><text x="540" y="1230" font-size="58" font-weight="800" fill="#ECE6D6" text-anchor="middle">Pro. Free. For life.</text><text x="540" y="1296" font-size="32" font-weight="700" fill="#AEB6BE" text-anchor="middle">register before they're gone</text></g>
  <g opacity="0"><animate attributeName="opacity" values="0;0;1;1" keyTimes="0;0.78;0.84;1" dur="14s" repeatCount="indefinite"/><animateTransform attributeName="transform" type="translate" values="0 26;0 26;0 0;0 0" keyTimes="0;0.78;0.84;1" dur="14s" repeatCount="indefinite"/><rect x="90" y="1670" width="900" height="150" rx="28" fill="#E8A24A"/><text x="540" y="1734" font-size="34" font-weight="800" fill="#232A32" text-anchor="middle">First 10 to register = Pro free for life</text><text x="540" y="1790" font-size="32" font-weight="800" fill="#232A32" text-anchor="middle">nudgelive.co.uk</text></g>
  <rect x="0" y="1900" width="0" height="20" fill="#E8A24A">
    <animate attributeName="width" values="0;1080" dur="14s" repeatCount="indefinite"/>
  </rect>
</svg>
