<svg xmlns="http://www.w3.org/2000/svg" viewBox="0 0 1080 1920" width="1080" height="1920" font-family="Inter, Arial, sans-serif">
  <!-- Nudge — Day 1 static cover (Facebook single image / TikTok thumbnail). 9:16. -->
  <rect width="1080" height="1920" fill="#F8F7F4"/>

  <!-- wordmark -->
  <g transform="translate(366.5,58.5) scale(0.829)"><path d="M 16 16 L 50 16 A 34 34 0 0 1 84 50 L 84 84 L 50 84 A 34 34 0 0 1 16 50 Z" fill="none" stroke="#7BAA94" stroke-width="8" stroke-linejoin="round" stroke-linecap="round"/><text x="45" y="64" font-family="Inter, Arial, sans-serif" font-size="44" font-weight="700" fill="#232A32" text-anchor="middle">n</text><circle cx="64" cy="59" r="5.5" fill="#F5B52E"/></g>
  <text x="463" y="110" font-size="36" font-weight="800" fill="#232A32">nudge</text>

  <!-- hook -->
  <text x="540" y="246" font-size="56" font-weight="800" fill="#232A32" text-anchor="middle">The school letter</text>
  <text x="540" y="314" font-size="56" font-weight="800" fill="#232A32" text-anchor="middle">that lived in your bag</text>
  <text x="540" y="382" font-size="56" font-weight="800" fill="#232A32" text-anchor="middle">for 3 days.</text>

  <!-- before: letter -->
  <g transform="rotate(-3 540 640)">
    <rect x="290" y="450" width="500" height="380" rx="14" fill="#FFFFFF" stroke="#E9E9E3" stroke-width="2"/>
    <rect x="290" y="450" width="500" height="76" rx="14" fill="#EDF2EF"/>
    <text x="320" y="500" font-size="26" font-weight="800" fill="#3C5A4C">OAKWOOD PRIMARY</text>
    <text x="320" y="576" font-size="26" fill="#232A32">PE kits needed <tspan font-weight="800">Friday</tspan>.</text>
    <text x="320" y="624" font-size="26" fill="#232A32">Trip — <tspan font-weight="800">£15 by 15 June</tspan>.</text>
    <text x="320" y="672" font-size="26" fill="#232A32">Parents' evening open…</text>
    <text x="320" y="760" font-size="24" fill="#9AA4AE" font-style="italic">just snap a photo →</text>
  </g>

  <!-- arrow -->
  <text x="540" y="940" font-size="40" font-weight="800" fill="#7BAA94" text-anchor="middle">Nudge reads it ↓</text>

  <!-- after: two tasks -->
  <rect x="120" y="990" width="840" height="180" rx="20" fill="#FFFFFF" stroke="#E9E9E3" stroke-width="2"/>
  <text x="160" y="1080" font-size="40" font-weight="800" fill="#232A32">Bring PE kit</text>
  <text x="160" y="1132" font-size="27" fill="#667085">Reminder before school</text>
  <rect x="760" y="1030" width="150" height="70" rx="14" fill="#7BAA94"/>
  <text x="835" y="1077" font-size="32" font-weight="800" fill="#FFFFFF" text-anchor="middle">FRI</text>

  <rect x="120" y="1200" width="840" height="180" rx="20" fill="#FFFFFF" stroke="#E9E9E3" stroke-width="2"/>
  <text x="160" y="1290" font-size="40" font-weight="800" fill="#232A32">Pay £15 trip</text>
  <text x="160" y="1342" font-size="27" fill="#667085">Due 15 June</text>
  <rect x="710" y="1240" width="200" height="70" rx="14" fill="#E8A24A"/>
  <text x="810" y="1287" font-size="30" font-weight="800" fill="#FFFFFF" text-anchor="middle">15 JUN</text>

  <!-- promo strip -->
  <rect x="90" y="1470" width="900" height="300" rx="26" fill="#232A32"/>
  <text x="540" y="1556" font-size="30" font-weight="700" fill="#9FD3BD" text-anchor="middle" letter-spacing="2">LAUNCH OFFER</text>
  <text x="540" y="1622" font-size="40" font-weight="800" fill="#FFFFFF" text-anchor="middle">First 10 to register interest</text>
  <text x="540" y="1680" font-size="44" font-weight="800" fill="#9FD3BD" text-anchor="middle">get Nudge Pro FREE for life</text>
  <text x="540" y="1742" font-size="34" font-weight="700" fill="#FFFFFF" text-anchor="middle">nudgelive.co.uk · link in bio</text>
</svg>
