<svg xmlns="http://www.w3.org/2000/svg" viewBox="0 0 1080 1920" width="1080" height="1920" font-family="Inter, Arial, sans-serif">
  <!-- Nudge — Day 3 (screenshot-graveyard) cover. Distinct bg + concept motif per day. -->
  <rect width="1080" height="1920" fill="#232A32"/>
  <g transform="translate(475.0,67.0) scale(0.499)"><path d="M 16 16 L 50 16 A 34 34 0 0 1 84 50 L 84 84 L 50 84 A 34 34 0 0 1 16 50 Z" fill="none" stroke="#7BAA94" stroke-width="8" stroke-linejoin="round" stroke-linecap="round"/><text x="45" y="64" font-size="44" font-weight="700" fill="#ECE6D6" text-anchor="middle">n</text><circle cx="64" cy="59" r="5.5" fill="#F5B52E"/></g><text x="540" y="104" font-size="34" font-weight="800" fill="#ECE6D6">nudge</text>
  <text x="540" y="280" font-size="66" font-weight="800" fill="#ECE6D6" text-anchor="middle">Your camera roll is a</text>
  <text x="540" y="360" font-size="66" font-weight="800" fill="#ECE6D6" text-anchor="middle">to-do list in disguise</text>
  <rect x="390" y="490" width="300" height="640" rx="40" fill="#1C232B" stroke="#3A4650" stroke-width="4"/><rect x="430" y="560" width="64" height="120" rx="10" fill="#2E3741"/><rect x="438" y="570" width="48" height="40" rx="6" fill="#E8A24A"/><rect x="510" y="560" width="64" height="120" rx="10" fill="#2E3741"/><rect x="518" y="570" width="48" height="40" rx="6" fill="#46535F"/><rect x="590" y="560" width="64" height="120" rx="10" fill="#2E3741"/><rect x="598" y="570" width="48" height="40" rx="6" fill="#46535F"/><rect x="430" y="710" width="64" height="120" rx="10" fill="#2E3741"/><rect x="438" y="720" width="48" height="40" rx="6" fill="#E8A24A"/><rect x="510" y="710" width="64" height="120" rx="10" fill="#2E3741"/><rect x="518" y="720" width="48" height="40" rx="6" fill="#46535F"/><rect x="590" y="710" width="64" height="120" rx="10" fill="#2E3741"/><rect x="598" y="720" width="48" height="40" rx="6" fill="#46535F"/><rect x="430" y="860" width="64" height="120" rx="10" fill="#2E3741"/><rect x="438" y="870" width="48" height="40" rx="6" fill="#E8A24A"/><rect x="510" y="860" width="64" height="120" rx="10" fill="#2E3741"/><rect x="518" y="870" width="48" height="40" rx="6" fill="#46535F"/><rect x="590" y="860" width="64" height="120" rx="10" fill="#2E3741"/><rect x="598" y="870" width="48" height="40" rx="6" fill="#46535F"/><circle cx="720" cy="540" r="90" fill="#E8A24A"/><text x="720" y="540" font-size="60" font-weight="800" fill="#232A32" text-anchor="middle">237</text><text x="720" y="585" font-size="22" font-weight="700" fill="#232A32" text-anchor="middle">UNREAD</text><path d="M 540 1190 l 0 60 M 518 1226 l 22 26 l 22 -26" fill="none" stroke="#E8A24A" stroke-width="9" stroke-linecap="round" stroke-linejoin="round"/><rect x="240" y="1290" width="600" height="120" rx="18" fill="#FFFFFF" stroke="#E9E9E3" stroke-width="2"/><circle cx="284" cy="1350" r="22" fill="none" stroke="#7BAA94" stroke-width="5"/><path d="M 270 1350 l 9 11 l 19 -23" fill="none" stroke="#7BAA94" stroke-width="7" stroke-linecap="round" stroke-linejoin="round"/><text x="326" y="1362" font-size="34" font-weight="800" fill="#232A32">Move car — 6pm</text><rect x="708" y="1322" width="108" height="56" rx="14" fill="#E8A24A"/><text x="762" y="1360" font-size="28" font-weight="800" fill="#232A32" text-anchor="middle">6PM</text>
  <rect x="90" y="1640" width="900" height="210" rx="28" fill="#E8A24A"/><text x="540" y="1716" font-size="33" font-weight="800" fill="#232A32" text-anchor="middle">First 10 to register = Pro free for life</text><text x="540" y="1772" font-size="29" font-weight="700" fill="#1c232b" text-anchor="middle">then 3 months free for everyone else</text><text x="540" y="1822" font-size="31" font-weight="800" fill="#232A32" text-anchor="middle">nudgelive.co.uk</text>
</svg>
