<svg xmlns="http://www.w3.org/2000/svg" viewBox="0 0 1080 1920" width="1080" height="1920" font-family="Inter, Arial, sans-serif">
  <!-- Nudge — Day 5 (promo): animated 9:16, loops 14s. Screen-record full-screen on a phone. -->
  <rect width="1080" height="1920" fill="#161B21"/>
  <g transform="translate(475.0,67.0) scale(0.499)"><path d="M 16 16 L 50 16 A 34 34 0 0 1 84 50 L 84 84 L 50 84 A 34 34 0 0 1 16 50 Z" fill="none" stroke="#7BAA94" stroke-width="8" stroke-linejoin="round" stroke-linecap="round"/><text x="45" y="64" font-size="44" font-weight="700" fill="#ECE6D6" text-anchor="middle">n</text><circle cx="64" cy="59" r="5.5" fill="#F5B52E"/></g><text x="540" y="104" font-size="34" font-weight="800" fill="#ECE6D6">nudge</text>
  <g opacity="0"><animate attributeName="opacity" values="0;0;1;1" keyTimes="0;0.03;0.07;1" dur="14s" repeatCount="indefinite"/><animateTransform attributeName="transform" type="translate" values="0 26;0 26;0 0;0 0" keyTimes="0;0.03;0.07;1" dur="14s" repeatCount="indefinite"/><text x="540" y="280" font-size="66" font-weight="800" fill="#ECE6D6" text-anchor="middle">We're opening Nudge</text>
  <text x="540" y="360" font-size="66" font-weight="800" fill="#ECE6D6" text-anchor="middle">very soon.</text></g>
  <g opacity="0"><animate attributeName="opacity" values="0;0;1;1" keyTimes="0;0.1;0.18;1" dur="14s" repeatCount="indefinite"/><animateTransform attributeName="transform" type="translate" values="0 26;0 26;0 0;0 0" keyTimes="0;0.1;0.18;1" dur="14s" repeatCount="indefinite"/><path d="M 470 880 l -30 240 l 100 -60 z" fill="#7BAA94"/><path d="M 610 880 l 30 240 l -100 -60 z" fill="#7BAA94"/><g stroke="#E8A24A" stroke-width="10" stroke-linecap="round"><line x1="690" y1="760" x2="725" y2="760"/><line x1="684.8888739433603" y1="798.8228567653781" x2="718.6962778634777" y2="807.8815233439664"/><line x1="669.9038105676658" y1="835" x2="700.2146997001212" y2="852.5"/><line x1="646.0660171779821" y1="866.0660171779821" x2="670.8147545195113" y2="890.8147545195113"/><line x1="615" y1="889.9038105676658" x2="632.5" y2="920.2146997001212"/><line x1="578.8228567653781" y1="904.8888739433603" x2="587.8815233439664" y2="938.6962778634777"/><line x1="540" y1="910" x2="540" y2="945"/><line x1="501.1771432346219" y1="904.8888739433603" x2="492.11847665603364" y2="938.6962778634777"/><line x1="465" y1="889.9038105676658" x2="447.50000000000006" y2="920.2146997001212"/><line x1="433.93398282201787" y1="866.0660171779821" x2="409.18524548048873" y2="890.8147545195113"/><line x1="410.0961894323342" y1="835" x2="379.7853002998788" y2="852.5"/><line x1="395.11112605663976" y1="798.8228567653781" x2="361.3037221365224" y2="807.8815233439664"/><line x1="390" y1="760" x2="355" y2="760"/><line x1="395.1111260566397" y1="721.1771432346219" x2="361.3037221365223" y2="712.1184766560337"/><line x1="410.0961894323342" y1="685" x2="379.7853002998788" y2="667.5"/><line x1="433.93398282201787" y1="653.9339828220179" x2="409.1852454804887" y2="629.1852454804887"/><line x1="464.99999999999994" y1="630.0961894323342" x2="447.4999999999999" y2="599.7853002998788"/><line x1="501.1771432346219" y1="615.1111260566397" x2="492.1184766560337" y2="581.3037221365223"/><line x1="540" y1="610" x2="540" y2="575"/><line x1="578.822856765378" y1="615.1111260566397" x2="587.8815233439663" y2="581.3037221365223"/><line x1="615" y1="630.0961894323342" x2="632.5" y2="599.7853002998788"/><line x1="646.0660171779821" y1="653.9339828220178" x2="670.8147545195113" y2="629.1852454804887"/><line x1="669.9038105676657" y1="684.9999999999999" x2="700.2146997001211" y2="667.4999999999999"/><line x1="684.8888739433603" y1="721.1771432346219" x2="718.6962778634777" y2="712.1184766560336"/></g><circle cx="540" cy="760" r="150" fill="#E8A24A"/><text x="540" y="730" font-size="40" font-weight="800" fill="#232A32" text-anchor="middle">PRO</text><text x="540" y="780" font-size="34" font-weight="800" fill="#232A32" text-anchor="middle">FREE</text><text x="540" y="822" font-size="30" font-weight="700" fill="#232A32" text-anchor="middle">for life</text></g>
  <g opacity="0"><animate attributeName="opacity" values="0;0;1;1" keyTimes="0;0.42;0.5;1" dur="14s" repeatCount="indefinite"/><animateTransform attributeName="transform" type="translate" values="0 26;0 26;0 0;0 0" keyTimes="0;0.42;0.5;1" dur="14s" repeatCount="indefinite"/><text x="540" y="1240" font-size="42" font-weight="800" fill="#ECE6D6" text-anchor="middle">First 10 to register interest</text><text x="540" y="1300" font-size="40" font-weight="800" fill="#E8A24A" text-anchor="middle">= Pro free for life</text></g>
  <g opacity="0"><animate attributeName="opacity" values="0;0;1;1" keyTimes="0;0.78;0.84;1" dur="14s" repeatCount="indefinite"/><animateTransform attributeName="transform" type="translate" values="0 26;0 26;0 0;0 0" keyTimes="0;0.78;0.84;1" dur="14s" repeatCount="indefinite"/><rect x="90" y="1670" width="900" height="150" rx="28" fill="#E8A24A"/><text x="540" y="1734" font-size="34" font-weight="800" fill="#232A32" text-anchor="middle">First 10 to register = Pro free for life</text><text x="540" y="1790" font-size="32" font-weight="800" fill="#232A32" text-anchor="middle">nudgelive.co.uk</text></g>
  <rect x="0" y="1900" width="0" height="20" fill="#E8A24A">
    <animate attributeName="width" values="0;1080" dur="14s" repeatCount="indefinite"/>
  </rect>
</svg>
