<svg xmlns="http://www.w3.org/2000/svg" viewBox="0 0 1080 1920" width="1080" height="1920" font-family="Inter, Arial, sans-serif">
  <!-- Nudge — Day 2 (brain-forgets): animated 9:16, loops 14s. Screen-record full-screen on a phone. -->
  <rect width="1080" height="1920" fill="#F8F7F4"/>
  <g transform="translate(475.0,67.0) scale(0.499)"><path d="M 16 16 L 50 16 A 34 34 0 0 1 84 50 L 84 84 L 50 84 A 34 34 0 0 1 16 50 Z" fill="none" stroke="#7BAA94" stroke-width="8" stroke-linejoin="round" stroke-linecap="round"/><text x="45" y="64" font-size="44" font-weight="700" fill="#232A32" text-anchor="middle">n</text><circle cx="64" cy="59" r="5.5" fill="#F5B52E"/></g><text x="540" y="104" font-size="34" font-weight="800" fill="#232A32">nudge</text>
  <g opacity="0"><animate attributeName="opacity" values="0;0;1;1" keyTimes="0;0.03;0.07;1" dur="14s" repeatCount="indefinite"/><animateTransform attributeName="transform" type="translate" values="0 26;0 26;0 0;0 0" keyTimes="0;0.03;0.07;1" dur="14s" repeatCount="indefinite"/><text x="540" y="280" font-size="66" font-weight="800" fill="#232A32" text-anchor="middle">Things my brain</text>
  <text x="540" y="360" font-size="66" font-weight="800" fill="#232A32" text-anchor="middle">refuses to remember:</text></g>
  <g opacity="0"><animate attributeName="opacity" values="0;0;1;1" keyTimes="0;0.1;0.18;1" dur="14s" repeatCount="indefinite"/><animateTransform attributeName="transform" type="translate" values="0 26;0 26;0 0;0 0" keyTimes="0;0.1;0.18;1" dur="14s" repeatCount="indefinite"/><g transform="rotate(-10 470 453)"><rect x="210" y="408" width="520" height="90" rx="14" fill="#9FD3BD" stroke="#00000014" stroke-width="2"/><text x="234" y="464" font-size="30" font-weight="700" fill="#232A32">bin day — which bin?!</text></g><g transform="rotate(8 580 515)"><rect x="300" y="470" width="560" height="90" rx="14" fill="#FBE7BD" stroke="#00000014" stroke-width="2"/><text x="324" y="526" font-size="30" font-weight="700" fill="#232A32">mum's bday… next month?</text></g><g transform="rotate(-6 445 577)"><rect x="195" y="532" width="500" height="90" rx="14" fill="#ECE6D6" stroke="#00000014" stroke-width="2"/><text x="219" y="588" font-size="30" font-weight="700" fill="#232A32">cancel that free trial!!</text></g><g transform="rotate(12 590 639)"><rect x="320" y="594" width="540" height="90" rx="14" fill="#D9E7DF" stroke="#00000014" stroke-width="2"/><text x="344" y="650" font-size="30" font-weight="700" fill="#232A32">dentist — some Tuesday?</text></g><g transform="rotate(-9 515 701)"><rect x="235" y="656" width="560" height="90" rx="14" fill="#EFE3CC" stroke="#00000014" stroke-width="2"/><text x="259" y="712" font-size="30" font-weight="700" fill="#232A32">PLUMBER still dripping</text></g><g transform="rotate(5 540 763)"><rect x="285" y="718" width="510" height="90" rx="14" fill="#CFE0D5" stroke="#00000014" stroke-width="2"/><text x="309" y="774" font-size="30" font-weight="700" fill="#232A32">water bill?? which one</text></g><g transform="rotate(-13 475 825)"><rect x="205" y="780" width="540" height="90" rx="14" fill="#F6E8C8" stroke="#00000014" stroke-width="2"/><text x="229" y="836" font-size="30" font-weight="700" fill="#232A32">library books overdue?</text></g><g transform="rotate(7 580 887)"><rect x="330" y="842" width="500" height="90" rx="14" fill="#DCEAE1" stroke="#00000014" stroke-width="2"/><text x="354" y="898" font-size="30" font-weight="700" fill="#232A32">school trip money??</text></g></g>
  <g opacity="0"><animate attributeName="opacity" values="0;0;1;1" keyTimes="0;0.42;0.5;1" dur="14s" repeatCount="indefinite"/><animateTransform attributeName="transform" type="translate" values="0 26;0 26;0 0;0 0" keyTimes="0;0.42;0.5;1" dur="14s" repeatCount="indefinite"/><path d="M 540 936 l 0 60 M 518 972 l 22 26 l 22 -26" fill="none" stroke="#7BAA94" stroke-width="9" stroke-linecap="round" stroke-linejoin="round"/><rect x="170" y="1010" width="716" height="64" rx="14" fill="#FFFFFF" stroke="#E9E9E3" stroke-width="2"/><circle cx="212" cy="1042" r="15" fill="none" stroke="#7BAA94" stroke-width="4"/><path d="M 198 1042 l 9 11 l 19 -23" fill="none" stroke="#7BAA94" stroke-width="7" stroke-linecap="round" stroke-linejoin="round"/><text x="250" y="1052" font-size="28" font-weight="800" fill="#232A32">Call the plumber</text><rect x="775" y="1023" width="111" height="38" rx="10" fill="#E8A24A"/><text x="830.5" y="1049" font-size="21" font-weight="800" fill="#232A32" text-anchor="middle">TODAY</text><rect x="170" y="1086" width="716" height="64" rx="14" fill="#FFFFFF" stroke="#E9E9E3" stroke-width="2"/><circle cx="212" cy="1118" r="15" fill="none" stroke="#7BAA94" stroke-width="4"/><path d="M 198 1118 l 9 11 l 19 -23" fill="none" stroke="#7BAA94" stroke-width="7" stroke-linecap="round" stroke-linejoin="round"/><text x="250" y="1128" font-size="28" font-weight="800" fill="#232A32">Put the bins out</text><rect x="715" y="1099" width="171" height="38" rx="10" fill="#7BAA94"/><text x="800.5" y="1125" font-size="21" font-weight="800" fill="#FFFFFF" text-anchor="middle">EVERY THU</text><rect x="170" y="1162" width="716" height="64" rx="14" fill="#FFFFFF" stroke="#E9E9E3" stroke-width="2"/><circle cx="212" cy="1194" r="15" fill="none" stroke="#7BAA94" stroke-width="4"/><path d="M 198 1194 l 9 11 l 19 -23" fill="none" stroke="#7BAA94" stroke-width="7" stroke-linecap="round" stroke-linejoin="round"/><text x="250" y="1204" font-size="28" font-weight="800" fill="#232A32">School trip £15</text><rect x="805" y="1175" width="81" height="38" rx="10" fill="#E8A24A"/><text x="845.5" y="1201" font-size="21" font-weight="800" fill="#232A32" text-anchor="middle">FRI</text><rect x="170" y="1238" width="716" height="64" rx="14" fill="#FFFFFF" stroke="#E9E9E3" stroke-width="2"/><circle cx="212" cy="1270" r="15" fill="none" stroke="#7BAA94" stroke-width="4"/><path d="M 198 1270 l 9 11 l 19 -23" fill="none" stroke="#7BAA94" stroke-width="7" stroke-linecap="round" stroke-linejoin="round"/><text x="250" y="1280" font-size="28" font-weight="800" fill="#232A32">Dentist check-up</text><rect x="730" y="1251" width="156" height="38" rx="10" fill="#7BAA94"/><text x="808" y="1277" font-size="21" font-weight="800" fill="#FFFFFF" text-anchor="middle">TUE 9:30</text><rect x="170" y="1314" width="716" height="64" rx="14" fill="#FFFFFF" stroke="#E9E9E3" stroke-width="2"/><circle cx="212" cy="1346" r="15" fill="none" stroke="#7BAA94" stroke-width="4"/><path d="M 198 1346 l 9 11 l 19 -23" fill="none" stroke="#7BAA94" stroke-width="7" stroke-linecap="round" stroke-linejoin="round"/><text x="250" y="1356" font-size="28" font-weight="800" fill="#232A32">Library books back</text><rect x="760" y="1327" width="126" height="38" rx="10" fill="#7BAA94"/><text x="823" y="1353" font-size="21" font-weight="800" fill="#FFFFFF" text-anchor="middle">18 JUN</text><rect x="170" y="1390" width="716" height="64" rx="14" fill="#FFFFFF" stroke="#E9E9E3" stroke-width="2"/><circle cx="212" cy="1422" r="15" fill="none" stroke="#7BAA94" stroke-width="4"/><path d="M 198 1422 l 9 11 l 19 -23" fill="none" stroke="#7BAA94" stroke-width="7" stroke-linecap="round" stroke-linejoin="round"/><text x="250" y="1432" font-size="28" font-weight="800" fill="#232A32">Cancel free trial</text><rect x="760" y="1403" width="126" height="38" rx="10" fill="#E8A24A"/><text x="823" y="1429" font-size="21" font-weight="800" fill="#232A32" text-anchor="middle">20 JUN</text><rect x="170" y="1466" width="716" height="64" rx="14" fill="#FFFFFF" stroke="#E9E9E3" stroke-width="2"/><circle cx="212" cy="1498" r="15" fill="none" stroke="#7BAA94" stroke-width="4"/><path d="M 198 1498 l 9 11 l 19 -23" fill="none" stroke="#7BAA94" stroke-width="7" stroke-linecap="round" stroke-linejoin="round"/><text x="250" y="1508" font-size="28" font-weight="800" fill="#232A32">Pay the water bill</text><rect x="760" y="1479" width="126" height="38" rx="10" fill="#E8A24A"/><text x="823" y="1505" font-size="21" font-weight="800" fill="#232A32" text-anchor="middle">28 JUN</text><rect x="170" y="1542" width="716" height="64" rx="14" fill="#FFFFFF" stroke="#E9E9E3" stroke-width="2"/><circle cx="212" cy="1574" r="15" fill="none" stroke="#7BAA94" stroke-width="4"/><path d="M 198 1574 l 9 11 l 19 -23" fill="none" stroke="#7BAA94" stroke-width="7" stroke-linecap="round" stroke-linejoin="round"/><text x="250" y="1584" font-size="28" font-weight="800" fill="#232A32">Mum's birthday</text><rect x="760" y="1555" width="126" height="38" rx="10" fill="#7BAA94"/><text x="823" y="1581" font-size="21" font-weight="800" fill="#FFFFFF" text-anchor="middle">12 JUL</text></g>
  <g opacity="0"><animate attributeName="opacity" values="0;0;1;1" keyTimes="0;0.78;0.84;1" dur="14s" repeatCount="indefinite"/><animateTransform attributeName="transform" type="translate" values="0 26;0 26;0 0;0 0" keyTimes="0;0.78;0.84;1" dur="14s" repeatCount="indefinite"/><rect x="90" y="1640" width="900" height="210" rx="28" fill="#232A32"/><text x="540" y="1716" font-size="33" font-weight="800" fill="#ECE6D6" text-anchor="middle">First 10 to register = Pro free for life</text><text x="540" y="1772" font-size="29" font-weight="700" fill="#9FD3BD" text-anchor="middle">then 3 months free for everyone else</text><text x="540" y="1822" font-size="31" font-weight="800" fill="#E8A24A" text-anchor="middle">nudgelive.co.uk</text></g>
  <rect x="0" y="1900" width="0" height="20" fill="#7BAA94">
    <animate attributeName="width" values="0;1080" dur="14s" repeatCount="indefinite"/>
  </rect>
</svg>
