<svg xmlns="http://www.w3.org/2000/svg" viewBox="0 0 1080 1920" width="1080" height="1920" font-family="Manrope, Arial, sans-serif">
  <!-- Nudge demo cover (Facebook image / TikTok thumbnail). Mock data only. 9:16. -->
  <rect width="1080" height="1920" fill="#F8F7F4"/>
  <rect x="378" y="64" width="60" height="60" rx="17" fill="#7BAA94"/>
  <text x="408" y="108" font-size="38" font-weight="800" fill="#FFFFFF" text-anchor="middle">n</text>
  <text x="456" y="108" font-size="36" font-weight="800" fill="#232A32">nudge</text>

  <text x="540" y="214" font-size="54" font-weight="800" fill="#232A32" text-anchor="middle">A school email with</text>
  <text x="540" y="278" font-size="54" font-weight="800" fill="#232A32" text-anchor="middle">5 things buried in it.</text>

  <!-- mock email -->
  <g transform="rotate(-3 540 470)">
    <rect x="300" y="330" width="480" height="300" rx="14" fill="#FFFFFF" stroke="#E9E9E3" stroke-width="2"/>
    <rect x="300" y="330" width="480" height="70" rx="14" fill="#EDF2EF"/>
    <text x="330" y="376" font-size="24" font-weight="800" fill="#3C5A4C">OAKWOOD ACADEMY</text>
    <text x="330" y="452" font-size="25" fill="#232A32">Transition Days <tspan font-weight="800">23–24 Jun</tspan>, 8:40am</text>
    <text x="330" y="498" font-size="25" fill="#232A32">PE kit + packed lunch each day</text>
    <text x="330" y="544" font-size="25" fill="#232A32">Yr 7 Evening <tspan font-weight="800">9 Jul, 6pm</tspan>…</text>
    <text x="330" y="600" font-size="22" fill="#9AA4AE" font-style="italic">forward it to Nudge →</text>
  </g>

  <text x="540" y="712" font-size="40" font-weight="800" fill="#7BAA94" text-anchor="middle">Nudge sorts it ↓</text>

  <!-- task 1 -->
  <rect x="100" y="748" width="880" height="288" rx="20" fill="#FFFFFF" stroke="#E9E9E3" stroke-width="2"/>
  <text x="138" y="812" font-size="36" font-weight="800" fill="#232A32">Prepare for Transition Days</text>
  <rect x="800" y="768" width="150" height="62" rx="14" fill="#7BAA94"/>
  <text x="875" y="809" font-size="28" font-weight="800" fill="#FFFFFF" text-anchor="middle">23 JUN</text>
  <text x="138" y="856" font-size="25" fill="#667085">Tue 23 Jun · at Oakwood Academy</text>
  <text x="138" y="912" font-size="26" fill="#232A32">– Wear primary PE kit</text>
  <text x="138" y="954" font-size="26" fill="#232A32">– Pack lunch &amp; water each day</text>
  <text x="138" y="996" font-size="26" fill="#232A32">– Arrive main entrance by 8:40am</text>

  <!-- task 2 -->
  <rect x="100" y="1056" width="880" height="170" rx="20" fill="#FFFFFF" stroke="#E9E9E3" stroke-width="2"/>
  <text x="138" y="1124" font-size="36" font-weight="800" fill="#232A32">Rising to Year 7 Evening</text>
  <rect x="800" y="1080" width="150" height="62" rx="14" fill="#E8A24A"/>
  <text x="875" y="1121" font-size="28" font-weight="800" fill="#FFFFFF" text-anchor="middle">9 JUL</text>
  <text x="138" y="1168" font-size="25" fill="#667085">Thu 9 Jul, 18:00 · Main Reception</text>

  <!-- promo strip -->
  <rect x="90" y="1300" width="900" height="300" rx="26" fill="#232A32"/>
  <text x="540" y="1386" font-size="30" font-weight="700" fill="#9FD3BD" text-anchor="middle" letter-spacing="2">LAUNCH OFFER</text>
  <text x="540" y="1452" font-size="40" font-weight="800" fill="#FFFFFF" text-anchor="middle">First 10 to register interest</text>
  <text x="540" y="1510" font-size="44" font-weight="800" fill="#9FD3BD" text-anchor="middle">get Nudge Pro FREE for life</text>
  <text x="540" y="1572" font-size="34" font-weight="700" fill="#FFFFFF" text-anchor="middle">nudgelive.co.uk · link in bio</text>
</svg>
