<svg xmlns="http://www.w3.org/2000/svg" viewBox="0 0 1080 1920" width="1080" height="1920" font-family="Inter, Arial, sans-serif">
  <!-- Nudge — World Cup one-off, animated 9:16, loops 14s. -->
  <rect width="1080" height="1920" fill="#15723E"/>
  <g><animateTransform attributeName="transform" type="rotate" values="-1.5 540 150;1.5 540 150;-1.5 540 150" dur="3.2s" repeatCount="indefinite"/><line x1="40" y1="150" x2="1040" y2="150" stroke="#0E3D22" stroke-width="4"/><polygon points="70,150 162,150 116,212" fill="#E5484D" stroke="#0E3D22" stroke-width="2"/><polygon points="182,150 274,150 228,212" fill="#FFFFFF" stroke="#0E3D22" stroke-width="2"/><polygon points="294,150 386,150 340,212" fill="#E5484D" stroke="#0E3D22" stroke-width="2"/><polygon points="406,150 498,150 452,212" fill="#FFFFFF" stroke="#0E3D22" stroke-width="2"/><polygon points="518,150 610,150 564,212" fill="#E5484D" stroke="#0E3D22" stroke-width="2"/><polygon points="630,150 722,150 676,212" fill="#FFFFFF" stroke="#0E3D22" stroke-width="2"/><polygon points="742,150 834,150 788,212" fill="#E5484D" stroke="#0E3D22" stroke-width="2"/><polygon points="854,150 946,150 900,212" fill="#FFFFFF" stroke="#0E3D22" stroke-width="2"/><polygon points="966,150 1058,150 1012,212" fill="#E5484D" stroke="#0E3D22" stroke-width="2"/></g>
  <g><animateMotion dur="4.6s" repeatCount="indefinite" path="M -120 1560 Q 160 1390 440 1560 T 980 1560 T 1560 1560"/><g><animateTransform attributeName="transform" type="rotate" from="0 0 0" to="360 0 0" dur="0.9s" repeatCount="indefinite"/><circle cx="0" cy="0" r="36" fill="#FFFFFF" stroke="#111827" stroke-width="4"/><polygon points="0.0,-15.1 14.4,-4.7 8.9,12.2 -8.9,12.2 -14.4,-4.7" fill="#111827"/></g></g>
  <g transform="translate(475.0,67.0) scale(0.499)"><path d="M 16 16 L 50 16 A 34 34 0 0 1 84 50 L 84 84 L 50 84 A 34 34 0 0 1 16 50 Z" fill="none" stroke="#7BAA94" stroke-width="8" stroke-linejoin="round" stroke-linecap="round"/><text x="45" y="64" font-size="44" font-weight="700" fill="#FFFFFF" text-anchor="middle">n</text><circle cx="64" cy="59" r="5.5" fill="#F5B52E"/></g><text x="540" y="104" font-size="34" font-weight="800" fill="#FFFFFF">nudge</text>
  <g opacity="0"><animate attributeName="opacity" values="0;0;1;1" keyTimes="0;0.03;0.07;1" dur="14s" repeatCount="indefinite"/><animateTransform attributeName="transform" type="translate" values="0 26;0 26;0 0;0 0" keyTimes="0;0.03;0.07;1" dur="14s" repeatCount="indefinite"/><text x="540" y="280" font-size="66" font-weight="800" fill="#FFFFFF" text-anchor="middle">It's coming home.</text>
  <text x="540" y="360" font-size="66" font-weight="800" fill="#FFFFFF" text-anchor="middle">So is the admin.</text></g>
  <g opacity="0"><animate attributeName="opacity" values="0;0;1;1" keyTimes="0;0.1;0.18;1" dur="14s" repeatCount="indefinite"/><animateTransform attributeName="transform" type="translate" values="0 26;0 26;0 0;0 0" keyTimes="0;0.1;0.18;1" dur="14s" repeatCount="indefinite"/><circle cx="540" cy="700" r="250" fill="none" stroke="#ffffff22" stroke-width="4"/><rect x="200" y="430" width="680" height="96" rx="18" fill="#0E3D22"/><circle cx="258" cy="478" r="34" fill="#fff" stroke="#111827" stroke-width="3.4"/><polygon points="258.0,463.7 271.6,473.6 266.4,489.6 249.6,489.6 244.4,473.6" fill="#111827"/><text x="320" y="468" font-size="26" font-weight="800" fill="#fff">MATCH DAY</text><text x="320" y="502" font-size="24" fill="#CBE3D3">Tue · 20:00 kick-off</text><g transform="rotate(-6 510 618)"><rect x="250" y="580" width="520" height="76" rx="12" fill="#FBE7BD" stroke="#00000014" stroke-width="2"/><text x="272" y="630" font-size="30" font-weight="700" fill="#232A32">£5 sweepstake?</text></g><g transform="rotate(5 540 716)"><rect x="290" y="678" width="500" height="76" rx="12" fill="#FBE7BD" stroke="#00000014" stroke-width="2"/><text x="312" y="728" font-size="30" font-weight="700" fill="#232A32">book the pub!!</text></g><g transform="rotate(-4 500 814)"><rect x="240" y="776" width="520" height="76" rx="12" fill="#FBE7BD" stroke="#00000014" stroke-width="2"/><text x="262" y="826" font-size="30" font-weight="700" fill="#232A32">snacks?? set alarm</text></g></g>
  <g opacity="0"><animate attributeName="opacity" values="0;0;1;1" keyTimes="0;0.42;0.5;1" dur="14s" repeatCount="indefinite"/><animateTransform attributeName="transform" type="translate" values="0 26;0 26;0 0;0 0" keyTimes="0;0.42;0.5;1" dur="14s" repeatCount="indefinite"/><path d="M 540 906 l 0 60 M 518 942 l 22 26 l 22 -26" fill="none" stroke="#E8A24A" stroke-width="9" stroke-linecap="round" stroke-linejoin="round"/><rect x="170" y="992" width="716" height="76" rx="14" fill="#FFFFFF"/><circle cx="214" cy="1030" r="16" fill="none" stroke="#7BAA94" stroke-width="4"/><path d="M 200 1030 l 9 11 l 19 -23" fill="none" stroke="#7BAA94" stroke-width="7" stroke-linecap="round" stroke-linejoin="round"/><text x="250" y="1040" font-size="30" font-weight="800" fill="#232A32">Kick-off — England</text><rect x="715" y="1010" width="171" height="40" rx="10" fill="#7BAA94"/><text x="800.5" y="1037" font-size="21" font-weight="800" fill="#FFFFFF" text-anchor="middle">19:45 TUE</text><rect x="170" y="1084" width="716" height="76" rx="14" fill="#FFFFFF"/><circle cx="214" cy="1122" r="16" fill="none" stroke="#7BAA94" stroke-width="4"/><path d="M 200 1122 l 9 11 l 19 -23" fill="none" stroke="#7BAA94" stroke-width="7" stroke-linecap="round" stroke-linejoin="round"/><text x="250" y="1132" font-size="30" font-weight="800" fill="#232A32">Pay the sweepstake</text><rect x="820" y="1102" width="66" height="40" rx="10" fill="#E8A24A"/><text x="853" y="1129" font-size="21" font-weight="800" fill="#232A32" text-anchor="middle">£5</text><rect x="170" y="1176" width="716" height="76" rx="14" fill="#FFFFFF"/><circle cx="214" cy="1214" r="16" fill="none" stroke="#7BAA94" stroke-width="4"/><path d="M 200 1214 l 9 11 l 19 -23" fill="none" stroke="#7BAA94" stroke-width="7" stroke-linecap="round" stroke-linejoin="round"/><text x="250" y="1224" font-size="30" font-weight="800" fill="#232A32">Book the pub table</text><rect x="775" y="1194" width="111" height="40" rx="10" fill="#7BAA94"/><text x="830.5" y="1221" font-size="21" font-weight="800" fill="#FFFFFF" text-anchor="middle">TODAY</text><rect x="170" y="1268" width="716" height="76" rx="14" fill="#FFFFFF"/><circle cx="214" cy="1306" r="16" fill="none" stroke="#7BAA94" stroke-width="4"/><path d="M 200 1306 l 9 11 l 19 -23" fill="none" stroke="#7BAA94" stroke-width="7" stroke-linecap="round" stroke-linejoin="round"/><text x="250" y="1316" font-size="30" font-weight="800" fill="#232A32">Snacks run</text><rect x="805" y="1286" width="81" height="40" rx="10" fill="#7BAA94"/><text x="845.5" y="1313" font-size="21" font-weight="800" fill="#FFFFFF" text-anchor="middle">TUE</text></g>
  <g opacity="0"><animate attributeName="opacity" values="0;0;1;1" keyTimes="0;0.8;0.86;1" dur="14s" repeatCount="indefinite"/><animateTransform attributeName="transform" type="translate" values="0 26;0 26;0 0;0 0" keyTimes="0;0.8;0.86;1" dur="14s" repeatCount="indefinite"/><rect x="90" y="1670" width="900" height="150" rx="28" fill="#E8A24A"/><text x="540" y="1734" font-size="34" font-weight="800" fill="#232A32" text-anchor="middle">First 10 to register = Pro free for life</text><text x="540" y="1790" font-size="32" font-weight="800" fill="#232A32" text-anchor="middle">nudgelive.co.uk</text></g>
  <rect x="0" y="1900" width="0" height="20" fill="#E8A24A"><animate attributeName="width" values="0;1080" dur="14s" repeatCount="indefinite"/></rect>
</svg>
