<svg xmlns="http://www.w3.org/2000/svg" viewBox="0 0 720 720" width="720" height="720"><rect width="720" height="720" fill="#3C5A4C"/><g stroke="#F5B52E" stroke-width="24" stroke-linecap="round"><line x1="523.2" y1="360.0" x2="590.4" y2="360.0"/><line x1="510.8" y1="422.5" x2="572.9" y2="448.2"/><line x1="475.4" y1="475.4" x2="522.9" y2="522.9"/><line x1="422.5" y1="510.8" x2="448.2" y2="572.9"/><line x1="360.0" y1="523.2" x2="360.0" y2="590.4"/><line x1="297.5" y1="510.8" x2="271.8" y2="572.9"/><line x1="244.6" y1="475.4" x2="197.1" y2="522.9"/><line x1="209.2" y1="422.5" x2="147.1" y2="448.2"/><line x1="196.8" y1="360.0" x2="129.6" y2="360.0"/><line x1="209.2" y1="297.5" x2="147.1" y2="271.8"/><line x1="244.6" y1="244.6" x2="197.1" y2="197.1"/><line x1="297.5" y1="209.2" x2="271.8" y2="147.1"/><line x1="360.0" y1="196.8" x2="360.0" y2="129.6"/><line x1="422.5" y1="209.2" x2="448.2" y2="147.1"/><line x1="475.4" y1="244.6" x2="522.9" y2="197.1"/><line x1="510.8" y1="297.5" x2="572.9" y2="271.8"/></g><circle cx="360" cy="360" r="120" fill="#7BAA94"/><text x="360" y="423.0" font-family="Manrope, Arial, sans-serif" font-size="180" font-weight="800" fill="#FFFFFF" text-anchor="middle">n</text></svg>