<svg xmlns="http://www.w3.org/2000/svg" viewBox="0 0 100 100" width="100" height="100"><g stroke="#F5B52E" stroke-width="4" stroke-linecap="round"><line x1="77.20" y1="50.00" x2="88.40" y2="50.00"/><line x1="75.13" y1="60.41" x2="85.48" y2="64.70"/><line x1="69.23" y1="69.23" x2="77.15" y2="77.15"/><line x1="60.41" y1="75.13" x2="64.70" y2="85.48"/><line x1="50.00" y1="77.20" x2="50.00" y2="88.40"/><line x1="39.59" y1="75.13" x2="35.30" y2="85.48"/><line x1="30.77" y1="69.23" x2="22.85" y2="77.15"/><line x1="24.87" y1="60.41" x2="14.52" y2="64.70"/><line x1="22.80" y1="50.00" x2="11.60" y2="50.00"/><line x1="24.87" y1="39.59" x2="14.52" y2="35.30"/><line x1="30.77" y1="30.77" x2="22.85" y2="22.85"/><line x1="39.59" y1="24.87" x2="35.30" y2="14.52"/><line x1="50.00" y1="22.80" x2="50.00" y2="11.60"/><line x1="60.41" y1="24.87" x2="64.70" y2="14.52"/><line x1="69.23" y1="30.77" x2="77.15" y2="22.85"/><line x1="75.13" y1="39.59" x2="85.48" y2="35.30"/></g><circle cx="50" cy="50" r="20" fill="#7BAA94"/><text x="50" y="60.50" font-family="Manrope, Arial, sans-serif" font-size="30.0" font-weight="800" fill="#FFFFFF" text-anchor="middle">n</text></svg>