<svg xmlns="http://www.w3.org/2000/svg" viewBox="0 0 100 100" width="100" height="100"><g stroke="#F5B52E" stroke-width="3.2" stroke-linecap="round"><line x1="71.76" y1="50.00" x2="80.72" y2="50.00"/><line x1="70.10" y1="58.33" x2="78.38" y2="61.76"/><line x1="65.39" y1="65.39" x2="71.72" y2="71.72"/><line x1="58.33" y1="70.10" x2="61.76" y2="78.38"/><line x1="50.00" y1="71.76" x2="50.00" y2="80.72"/><line x1="41.67" y1="70.10" x2="38.24" y2="78.38"/><line x1="34.61" y1="65.39" x2="28.28" y2="71.72"/><line x1="29.90" y1="58.33" x2="21.62" y2="61.76"/><line x1="28.24" y1="50.00" x2="19.28" y2="50.00"/><line x1="29.90" y1="41.67" x2="21.62" y2="38.24"/><line x1="34.61" y1="34.61" x2="28.28" y2="28.28"/><line x1="41.67" y1="29.90" x2="38.24" y2="21.62"/><line x1="50.00" y1="28.24" x2="50.00" y2="19.28"/><line x1="58.33" y1="29.90" x2="61.76" y2="21.62"/><line x1="65.39" y1="34.61" x2="71.72" y2="28.28"/><line x1="70.10" y1="41.67" x2="78.38" y2="38.24"/></g><circle cx="50" cy="50" r="16" fill="#7BAA94"/><text x="50" y="58.40" font-family="Manrope, Arial, sans-serif" font-size="24.0" font-weight="800" fill="#FFFFFF" text-anchor="middle">n</text></svg>