<svg xmlns="http://www.w3.org/2000/svg" viewBox="0 0 100 100" width="100" height="100"><rect width="100" height="100" fill="#3C5A4C"/><g stroke="#F5B52E" stroke-width="3.6" stroke-linecap="round"><line x1="74.48" y1="50.00" x2="84.56" y2="50.00"/><line x1="72.62" y1="59.37" x2="81.93" y2="63.23"/><line x1="67.31" y1="67.31" x2="74.44" y2="74.44"/><line x1="59.37" y1="72.62" x2="63.23" y2="81.93"/><line x1="50.00" y1="74.48" x2="50.00" y2="84.56"/><line x1="40.63" y1="72.62" x2="36.77" y2="81.93"/><line x1="32.69" y1="67.31" x2="25.56" y2="74.44"/><line x1="27.38" y1="59.37" x2="18.07" y2="63.23"/><line x1="25.52" y1="50.00" x2="15.44" y2="50.00"/><line x1="27.38" y1="40.63" x2="18.07" y2="36.77"/><line x1="32.69" y1="32.69" x2="25.56" y2="25.56"/><line x1="40.63" y1="27.38" x2="36.77" y2="18.07"/><line x1="50.00" y1="25.52" x2="50.00" y2="15.44"/><line x1="59.37" y1="27.38" x2="63.23" y2="18.07"/><line x1="67.31" y1="32.69" x2="74.44" y2="25.56"/><line x1="72.62" y1="40.63" x2="81.93" y2="36.77"/></g><circle cx="50" cy="50" r="18" fill="#7BAA94"/><text x="50" y="59.45" font-family="Manrope, Arial, sans-serif" font-size="27.0" font-weight="800" fill="#FFFFFF" text-anchor="middle">n</text></svg>