<svg xmlns="http://www.w3.org/2000/svg" viewBox="0 0 1024 1024" width="1024" height="1024"><rect width="1024" height="1024" fill="#3C5A4C"/><g stroke="#F5B52E" stroke-width="18" stroke-linecap="round"><line x1="634.40" y1="470.00" x2="684.80" y2="470.00"/><line x1="625.08" y1="516.84" x2="671.65" y2="536.13"/><line x1="598.55" y1="556.55" x2="634.19" y2="592.19"/><line x1="558.84" y1="583.08" x2="578.13" y2="629.65"/><line x1="512.00" y1="592.40" x2="512.00" y2="642.80"/><line x1="465.16" y1="583.08" x2="445.87" y2="629.65"/><line x1="425.45" y1="556.55" x2="389.81" y2="592.19"/><line x1="398.92" y1="516.84" x2="352.35" y2="536.13"/><line x1="389.60" y1="470.00" x2="339.20" y2="470.00"/><line x1="398.92" y1="423.16" x2="352.35" y2="403.87"/><line x1="425.45" y1="383.45" x2="389.81" y2="347.81"/><line x1="465.16" y1="356.92" x2="445.87" y2="310.35"/><line x1="512.00" y1="347.60" x2="512.00" y2="297.20"/><line x1="558.84" y1="356.92" x2="578.13" y2="310.35"/><line x1="598.55" y1="383.45" x2="634.19" y2="347.81"/><line x1="625.08" y1="423.16" x2="671.65" y2="403.87"/></g><circle cx="512" cy="470" r="90" fill="#7BAA94"/><text x="512" y="517.25" font-family="Manrope, Arial, sans-serif" font-size="135.0" font-weight="800" fill="#FFFFFF" text-anchor="middle">n</text><text x="512" y="660" font-family="Manrope, Arial, sans-serif" font-size="120" font-weight="800" fill="#FFFFFF" text-anchor="middle">nudge</text></svg>