<svg width="1024" height="500" viewBox="0 0 1024 500" xmlns="http://www.w3.org/2000/svg" font-family="Manrope, Arial, sans-serif">
  <defs>
    <linearGradient id="bg" x1="0" y1="0" x2="1" y2="1">
      <stop offset="0" stop-color="#7BAA94"/>
      <stop offset="1" stop-color="#6B9A84"/>
    </linearGradient>
  </defs>
  <rect width="1024" height="500" fill="url(#bg)"/>

  <!-- logo tile -->
  <g transform="translate(80 130)">
    <rect width="240" height="240" rx="52" fill="#FFFFFF"/>
    <g transform="translate(20 20) scale(2.0)">
      <path d="M32.4 75.8 A29 29 0 1 1 65.6 75.8" stroke="#7BAA94" stroke-width="12" stroke-linecap="round" fill="none"/>
      <circle cx="49" cy="56" r="8" fill="#F5B52E"/>
      <g stroke="#F5B52E" stroke-width="4.2" stroke-linecap="round">
        <path d="M70 30 L75 18"/><path d="M78 27 L84 14"/><path d="M85 32 L95 25"/>
      </g>
    </g>
  </g>

  <!-- wordmark + tagline -->
  <text x="360" y="210" font-size="96" font-weight="800" fill="#FFFFFF" letter-spacing="-2">nudge</text>
  <text x="362" y="270" font-size="32" font-weight="600" fill="#EAF2EC">Capture the chaos. nudge sorts it.</text>

  <!-- task pills -->
  <g transform="translate(362 312)">
    <rect width="300" height="50" rx="12" fill="#FFFFFF" opacity="0.96"/>
    <text x="20" y="32" font-size="20" fill="#232A32">Bring PE kit</text>
    <text x="280" y="32" font-size="16" font-weight="700" fill="#7BAA94" text-anchor="end">Fri</text>
  </g>
  <g transform="translate(680 312)">
    <rect width="264" height="50" rx="12" fill="#FFFFFF" opacity="0.96"/>
    <text x="20" y="32" font-size="20" fill="#232A32">Pay £15 trip</text>
  </g>
  <g transform="translate(362 374)">
    <rect width="582" height="50" rx="12" fill="#FFFFFF" opacity="0.96"/>
    <text x="20" y="32" font-size="20" fill="#232A32">Parents’ evening — book</text>
    <text x="562" y="32" font-size="16" font-weight="700" fill="#7BAA94" text-anchor="end">reminder set</text>
  </g>
</svg>
