<svg width="1024" height="500" viewBox="0 0 1024 500" xmlns="http://www.w3.org/2000/svg" font-family="Inter, Arial, sans-serif">
  <defs>
    <linearGradient id="bg" x1="0" y1="0" x2="1" y2="1">
      <stop offset="0" stop-color="#7BAA94"/>
      <stop offset="1" stop-color="#6B9A84"/>
    </linearGradient>
  </defs>
  <rect width="1024" height="500" fill="url(#bg)"/>

  <!-- logo tile -->
  <g transform="translate(80 130)">
    <rect width="240" height="240" rx="52" fill="#FFFFFF"/>
    <g transform="translate(20.2,20.2) scale(1.997)"><path d="M 16 16 L 50 16 A 34 34 0 0 1 84 50 L 84 84 L 50 84 A 34 34 0 0 1 16 50 Z" fill="none" stroke="#7BAA94" stroke-width="8" stroke-linejoin="round" stroke-linecap="round"/><text x="45" y="64" font-family="Inter, Arial, sans-serif" font-size="44" font-weight="700" fill="#232A32" text-anchor="middle">n</text><circle cx="64" cy="59" r="5.5" fill="#F5B52E"/></g>
  </g>

  <!-- wordmark + tagline -->
  <text x="360" y="210" font-size="96" font-weight="800" fill="#FFFFFF" letter-spacing="-2">nudge</text>
  <text x="362" y="270" font-size="32" font-weight="600" fill="#EAF2EC">Capture the chaos. nudge sorts it.</text>

  <!-- task pills -->
  <g transform="translate(362 312)">
    <rect width="300" height="50" rx="12" fill="#FFFFFF" opacity="0.96"/>
    <text x="20" y="32" font-size="20" fill="#232A32">Bring PE kit</text>
    <text x="280" y="32" font-size="16" font-weight="700" fill="#7BAA94" text-anchor="end">Fri</text>
  </g>
  <g transform="translate(680 312)">
    <rect width="264" height="50" rx="12" fill="#FFFFFF" opacity="0.96"/>
    <text x="20" y="32" font-size="20" fill="#232A32">Pay £15 trip</text>
  </g>
  <g transform="translate(362 374)">
    <rect width="582" height="50" rx="12" fill="#FFFFFF" opacity="0.96"/>
    <text x="20" y="32" font-size="20" fill="#232A32">Parents’ evening — book</text>
    <text x="562" y="32" font-size="16" font-weight="700" fill="#7BAA94" text-anchor="end">reminder set</text>
  </g>
</svg>
