<svg width="1024" height="500" viewBox="0 0 1024 500" xmlns="http://www.w3.org/2000/svg" font-family="Manrope, Arial, sans-serif">
  <defs>
    <linearGradient id="bg" x1="0" y1="0" x2="1" y2="1">
      <stop offset="0" stop-color="#7BAA94"/>
      <stop offset="1" stop-color="#6B9A84"/>
    </linearGradient>
  </defs>
  <rect width="1024" height="500" fill="url(#bg)"/>

  <!-- logo tile -->
  <g transform="translate(80 130)">
    <rect width="240" height="240" rx="52" fill="#FFFFFF"/>
    <g stroke="#F5B52E" stroke-width="10.4" stroke-linecap="round"><line x1="190.7" y1="120.0" x2="219.8" y2="120.0"/><line x1="185.3" y1="147.1" x2="212.2" y2="158.2"/><line x1="170.0" y1="170.0" x2="190.6" y2="190.6"/><line x1="147.1" y1="185.3" x2="158.2" y2="212.2"/><line x1="120.0" y1="190.7" x2="120.0" y2="219.8"/><line x1="92.9" y1="185.3" x2="81.8" y2="212.2"/><line x1="70.0" y1="170.0" x2="49.4" y2="190.6"/><line x1="54.7" y1="147.1" x2="27.8" y2="158.2"/><line x1="49.3" y1="120.0" x2="20.2" y2="120.0"/><line x1="54.7" y1="92.9" x2="27.8" y2="81.8"/><line x1="70.0" y1="70.0" x2="49.4" y2="49.4"/><line x1="92.9" y1="54.7" x2="81.8" y2="27.8"/><line x1="120.0" y1="49.3" x2="120.0" y2="20.2"/><line x1="147.1" y1="54.7" x2="158.2" y2="27.8"/><line x1="170.0" y1="70.0" x2="190.6" y2="49.4"/><line x1="185.3" y1="92.9" x2="212.2" y2="81.8"/></g><circle cx="120" cy="120" r="52" fill="#7BAA94"/><text x="120" y="147.3" font-family="Manrope, Arial, sans-serif" font-size="78" font-weight="800" fill="#FFFFFF" text-anchor="middle">n</text>
  </g>

  <!-- wordmark + tagline -->
  <text x="360" y="210" font-size="96" font-weight="800" fill="#FFFFFF" letter-spacing="-2">nudge</text>
  <text x="362" y="270" font-size="32" font-weight="600" fill="#EAF2EC">Capture the chaos. nudge sorts it.</text>

  <!-- task pills -->
  <g transform="translate(362 312)">
    <rect width="300" height="50" rx="12" fill="#FFFFFF" opacity="0.96"/>
    <text x="20" y="32" font-size="20" fill="#232A32">Bring PE kit</text>
    <text x="280" y="32" font-size="16" font-weight="700" fill="#7BAA94" text-anchor="end">Fri</text>
  </g>
  <g transform="translate(680 312)">
    <rect width="264" height="50" rx="12" fill="#FFFFFF" opacity="0.96"/>
    <text x="20" y="32" font-size="20" fill="#232A32">Pay £15 trip</text>
  </g>
  <g transform="translate(362 374)">
    <rect width="582" height="50" rx="12" fill="#FFFFFF" opacity="0.96"/>
    <text x="20" y="32" font-size="20" fill="#232A32">Parents’ evening — book</text>
    <text x="562" y="32" font-size="16" font-weight="700" fill="#7BAA94" text-anchor="end">reminder set</text>
  </g>
</svg>
