<svg width="1200" height="630" viewBox="0 0 1200 630" xmlns="http://www.w3.org/2000/svg" font-family="Inter, Arial, sans-serif">
  <rect width="1200" height="630" fill="#F8F7F4"/>
  <!-- brand row -->
  <g transform="translate(72 64)">
    <g transform="translate(5.1,5.1) scale(0.538)"><path d="M 16 16 L 50 16 A 34 34 0 0 1 84 50 L 84 84 L 50 84 A 34 34 0 0 1 16 50 Z" fill="none" stroke="#7BAA94" stroke-width="8" stroke-linejoin="round" stroke-linecap="round"/><text x="45" y="64" font-family="Inter, Arial, sans-serif" font-size="44" font-weight="700" fill="#232A32" text-anchor="middle">n</text><circle cx="64" cy="59" r="5.5" fill="#F5B52E"/></g>
    <text x="82" y="44" font-size="40" font-weight="800" fill="#232A32">nudge</text>
  </g>

  <text x="72" y="250" font-size="64" font-weight="800" fill="#232A32">Send it the messy stuff.</text>
  <text x="72" y="324" font-size="64" font-weight="800" fill="#7BAA94">It pulls out what matters.</text>
  <text x="74" y="392" font-size="30" font-weight="600" fill="#667085">Emails, photos, voice notes → dated tasks &amp; gentle reminders.</text>

  <!-- task pills -->
  <g transform="translate(72 452)">
    <rect x="0" y="0" width="520" height="56" rx="14" fill="#FFFFFF" stroke="#E9E9E3"/>
    <text x="22" y="36" font-size="22" fill="#232A32">Bring PE kit</text>
    <text x="498" y="36" font-size="18" font-weight="700" fill="#7BAA94" text-anchor="end">Fri</text>
    <rect x="0" y="68" width="520" height="56" rx="14" fill="#FFFFFF" stroke="#E9E9E3"/>
    <text x="22" y="104" font-size="22" fill="#232A32">Pay £15 school trip</text>
    <text x="498" y="104" font-size="18" font-weight="700" fill="#7BAA94" text-anchor="end">by 15 Jun</text>
  </g>

  <!-- right: family chip -->
  <g transform="translate(700 460)">
    <rect width="428" height="124" rx="16" fill="#cfe0d5"/>
    <text x="28" y="52" font-size="24" font-weight="800" fill="#2f5a45">Nudge Family</text>
    <text x="28" y="90" font-size="20" fill="#2f5a45">Share tasks &amp; reminders with the household.</text>
  </g>
</svg>
