<svg width="1200" height="630" viewBox="0 0 1200 630" xmlns="http://www.w3.org/2000/svg" font-family="Manrope, Arial, sans-serif">
  <rect width="1200" height="630" fill="#F8F7F4"/>
  <!-- brand row -->
  <g transform="translate(72 64)">
    <g stroke="#F5B52E" stroke-width="2.8000000000000003" stroke-linecap="round"><line x1="51.0" y1="32.0" x2="58.9" y2="32.0"/><line x1="49.6" y1="39.3" x2="56.8" y2="42.3"/><line x1="45.5" y1="45.5" x2="51.0" y2="51.0"/><line x1="39.3" y1="49.6" x2="42.3" y2="56.8"/><line x1="32.0" y1="51.0" x2="32.0" y2="58.9"/><line x1="24.7" y1="49.6" x2="21.7" y2="56.8"/><line x1="18.5" y1="45.5" x2="13.0" y2="51.0"/><line x1="14.4" y1="39.3" x2="7.2" y2="42.3"/><line x1="13.0" y1="32.0" x2="5.1" y2="32.0"/><line x1="14.4" y1="24.7" x2="7.2" y2="21.7"/><line x1="18.5" y1="18.5" x2="13.0" y2="13.0"/><line x1="24.7" y1="14.4" x2="21.7" y2="7.2"/><line x1="32.0" y1="13.0" x2="32.0" y2="5.1"/><line x1="39.3" y1="14.4" x2="42.3" y2="7.2"/><line x1="45.5" y1="18.5" x2="51.0" y2="13.0"/><line x1="49.6" y1="24.7" x2="56.8" y2="21.7"/></g><circle cx="32" cy="32" r="14" fill="#7BAA94"/><text x="32" y="39.4" font-family="Manrope, Arial, sans-serif" font-size="21" font-weight="800" fill="#FFFFFF" text-anchor="middle">n</text>
    <text x="82" y="44" font-size="40" font-weight="800" fill="#232A32">nudge</text>
  </g>

  <text x="72" y="250" font-size="64" font-weight="800" fill="#232A32">Send it the messy stuff.</text>
  <text x="72" y="324" font-size="64" font-weight="800" fill="#7BAA94">It pulls out what matters.</text>
  <text x="74" y="392" font-size="30" font-weight="600" fill="#667085">Emails, photos, voice notes → dated tasks &amp; gentle reminders.</text>

  <!-- task pills -->
  <g transform="translate(72 452)">
    <rect x="0" y="0" width="520" height="56" rx="14" fill="#FFFFFF" stroke="#E9E9E3"/>
    <text x="22" y="36" font-size="22" fill="#232A32">Bring PE kit</text>
    <text x="498" y="36" font-size="18" font-weight="700" fill="#7BAA94" text-anchor="end">Fri</text>
    <rect x="0" y="68" width="520" height="56" rx="14" fill="#FFFFFF" stroke="#E9E9E3"/>
    <text x="22" y="104" font-size="22" fill="#232A32">Pay £15 school trip</text>
    <text x="498" y="104" font-size="18" font-weight="700" fill="#7BAA94" text-anchor="end">by 15 Jun</text>
  </g>

  <!-- right: family chip -->
  <g transform="translate(700 460)">
    <rect width="428" height="124" rx="16" fill="#cfe0d5"/>
    <text x="28" y="52" font-size="24" font-weight="800" fill="#2f5a45">Nudge Family</text>
    <text x="28" y="90" font-size="20" fill="#2f5a45">Share tasks &amp; reminders with the household.</text>
  </g>
</svg>
