<svg xmlns="http://www.w3.org/2000/svg" viewBox="0 0 720 1280" width="720" height="1280" font-family="Inter, Arial, sans-serif">
  <rect width="720" height="1280" fill="#F8F7F4"/>
  <g opacity="0"><animate attributeName="opacity" values="0;0;1;1;0;0" keyTimes="0.000;0.000;0.020;0.303;0.333;1.000" dur="12s" repeatCount="indefinite"/><rect x="40" y="200" width="640" height="300" rx="20" fill="#FFFFFF" stroke="#E9E9E3" stroke-width="2"/><text x="72" y="262" font-size="26" font-weight="700" fill="#667085">Capture anything…</text><rect x="72" y="284" width="576" height="80" rx="14" fill="#F8F7F4"/><text x="92" y="334" font-size="28" font-weight="700" fill="#232A32">pay water bill friday £42<tspan fill="#7BAA94">|</tspan></text><rect x="430" y="400" width="218" height="64" rx="14" fill="#7BAA94"/><text x="539" y="442" font-size="28" font-weight="800" fill="#FFFFFF" text-anchor="middle">Capture</text><circle cx="539" cy="432" r="34" fill="#232A32" opacity="0.16"/><circle cx="539" cy="432" r="22" fill="#232A32" opacity="0.30"/><rect x="40" y="1120" width="640" height="120" rx="22" fill="#232A32"/><circle cx="96" cy="1180" r="30" fill="#F5B52E"/><text x="96" y="1192" font-size="34" font-weight="800" fill="#232A32" text-anchor="middle">1</text><text x="150" y="1190" font-size="28" font-weight="700" fill="#ECE6D6">Type it like a human — no forms</text></g>
  <g opacity="0"><animate attributeName="opacity" values="0;0;1;1;0;0" keyTimes="0.000;0.333;0.353;0.637;0.667;1.000" dur="12s" repeatCount="indefinite"/><rect x="40" y="420" width="640" height="96" rx="20" fill="#EDF2EF"/><circle cx="92" cy="468" r="16" fill="none" stroke="#7BAA94" stroke-width="5" stroke-dasharray="60 20"><animateTransform attributeName="transform" type="rotate" from="0 92 468" to="360 92 468" dur="1s" repeatCount="indefinite"/></circle><text x="130" y="478" font-size="28" font-weight="700" fill="#3C5A4C">nudge is reading it…</text><rect x="40" y="1120" width="640" height="120" rx="22" fill="#232A32"/><circle cx="96" cy="1180" r="30" fill="#F5B52E"/><text x="96" y="1192" font-size="34" font-weight="800" fill="#232A32" text-anchor="middle">2</text><text x="150" y="1190" font-size="28" font-weight="700" fill="#ECE6D6">Nudge pulls out the task, date &amp; amount</text></g>
  <g opacity="0"><animate attributeName="opacity" values="0;0;1;1;0;0" keyTimes="0.000;0.667;0.687;0.970;1.000;1.000" dur="12s" repeatCount="indefinite"/><rect x="40" y="360" width="640" height="150" rx="20" fill="#FFFFFF" stroke="#E9E9E3" stroke-width="2"/><circle cx="86" cy="416" r="20" fill="none" stroke="#7BAA94" stroke-width="5"/><path d="M 73 416 l 8 10 l 18 -22" fill="none" stroke="#7BAA94" stroke-width="6" stroke-linecap="round" stroke-linejoin="round"/><text x="124" y="426" font-size="32" font-weight="800" fill="#232A32">Pay water bill</text><text x="124" y="472" font-size="26" fill="#667085">£42 · due Friday</text><rect x="552" y="398" width="88" height="50" rx="13" fill="#F5B52E"/><text x="596" y="432" font-size="24" font-weight="800" fill="#FFFFFF" text-anchor="middle">FRI</text><rect x="40" y="1120" width="640" height="120" rx="22" fill="#232A32"/><circle cx="96" cy="1180" r="30" fill="#F5B52E"/><text x="96" y="1192" font-size="34" font-weight="800" fill="#232A32" text-anchor="middle">3</text><text x="150" y="1190" font-size="28" font-weight="700" fill="#ECE6D6">Sorted — reminder set automatically</text></g>
  <rect x="0" y="0" width="720" height="86" fill="#FFFFFF"/><line x1="0" y1="86" x2="720" y2="86" stroke="#E9E9E3" stroke-width="2"/><g transform="translate(28,22) scale(0.46)"><path d="M 16 16 L 50 16 A 34 34 0 0 1 84 50 L 84 84 L 50 84 A 34 34 0 0 1 16 50 Z" fill="none" stroke="#7BAA94" stroke-width="8" stroke-linejoin="round" stroke-linecap="round"/><text x="45" y="64" font-size="44" font-weight="700" fill="#232A32" text-anchor="middle">n</text><circle cx="64" cy="59" r="5.5" fill="#F5B52E"/></g><text x="72" y="55" font-size="30" font-weight="800" fill="#232A32">nudge</text>
  <rect x="0" y="1272" width="0" height="8" fill="#7BAA94"><animate attributeName="width" values="0;720" dur="12s" repeatCount="indefinite"/></rect>
</svg>