<svg xmlns="http://www.w3.org/2000/svg" viewBox="0 0 720 1280" width="720" height="1280" font-family="Inter, Arial, sans-serif">
  <rect width="720" height="1280" fill="#F8F7F4"/>
  <g opacity="0"><animate attributeName="opacity" values="0;0;1;1;0;0" keyTimes="0.000;0.000;0.020;0.303;0.333;1.000" dur="12s" repeatCount="indefinite"/><rect x="40" y="220" width="640" height="240" rx="20" fill="#FFFFFF" stroke="#E9E9E3" stroke-width="2"/><text x="72" y="300" font-size="32" font-weight="800" fill="#232A32">Pay water bill</text><text x="72" y="346" font-size="26" fill="#667085">£42 · Fri</text><rect x="72" y="384" width="150" height="58" rx="13" fill="#7BAA94"/><text x="147" y="422" font-size="24" font-weight="800" fill="#FFFFFF" text-anchor="middle">Done</text><rect x="236" y="384" width="170" height="58" rx="13" fill="#FFFFFF" stroke="#E9E9E3" stroke-width="2"/><text x="321" y="422" font-size="24" font-weight="800" fill="#232A32" text-anchor="middle">Snooze</text><rect x="420" y="384" width="140" height="58" rx="13" fill="#FFFFFF" stroke="#E9E9E3" stroke-width="2"/><text x="490" y="422" font-size="24" font-weight="800" fill="#232A32" text-anchor="middle">Edit</text><circle cx="147" cy="413" r="34" fill="#232A32" opacity="0.16"/><circle cx="147" cy="413" r="22" fill="#232A32" opacity="0.30"/><rect x="40" y="1120" width="640" height="120" rx="22" fill="#232A32"/><circle cx="96" cy="1180" r="30" fill="#F5B52E"/><text x="96" y="1192" font-size="34" font-weight="800" fill="#232A32" text-anchor="middle">1</text><text x="150" y="1190" font-size="28" font-weight="700" fill="#ECE6D6">Tap Done when it's handled</text></g>
  <g opacity="0"><animate attributeName="opacity" values="0;0;1;1;0;0" keyTimes="0.000;0.333;0.353;0.637;0.667;1.000" dur="12s" repeatCount="indefinite"/><rect x="40" y="280" width="640" height="150" rx="20" fill="#FFFFFF" stroke="#E9E9E3" stroke-width="2"/><circle cx="86" cy="336" r="20" fill="#7BAA94"/><path d="M 73 336 l 8 10 l 18 -22" fill="none" stroke="#FFFFFF" stroke-width="6" stroke-linecap="round" stroke-linejoin="round"/><text x="124" y="346" font-size="32" font-weight="800" fill="#9AA4AE">Pay water bill</text><line x1="124" y1="336" x2="356" y2="336" stroke="#9AA4AE" stroke-width="3"/><rect x="498" y="318" width="142" height="52" rx="13" fill="none" stroke="#F5B52E" stroke-width="2"/><text x="569" y="352" font-size="24" font-weight="800" fill="#F5B52E" text-anchor="middle">Undo</text><rect x="40" y="1120" width="640" height="120" rx="22" fill="#232A32"/><circle cx="96" cy="1180" r="30" fill="#F5B52E"/><text x="96" y="1192" font-size="34" font-weight="800" fill="#232A32" text-anchor="middle">2</text><text x="150" y="1190" font-size="28" font-weight="700" fill="#ECE6D6">It's marked done in a tap</text></g>
  <g opacity="0"><animate attributeName="opacity" values="0;0;1;1;0;0" keyTimes="0.000;0.667;0.687;0.970;1.000;1.000" dur="12s" repeatCount="indefinite"/><text x="360" y="380" font-size="30" font-weight="800" fill="#232A32" text-anchor="middle">Find it under “Closed nudges”</text><text x="360" y="428" font-size="26" fill="#667085" text-anchor="middle">(in the menu) — Undo anytime</text><rect x="40" y="1120" width="640" height="120" rx="22" fill="#232A32"/><circle cx="96" cy="1180" r="30" fill="#F5B52E"/><text x="96" y="1192" font-size="34" font-weight="800" fill="#232A32" text-anchor="middle">3</text><text x="150" y="1190" font-size="28" font-weight="700" fill="#ECE6D6">Changed your mind? Undo anytime</text></g>
  <rect x="0" y="0" width="720" height="86" fill="#FFFFFF"/><line x1="0" y1="86" x2="720" y2="86" stroke="#E9E9E3" stroke-width="2"/><g transform="translate(28,22) scale(0.46)"><path d="M 16 16 L 50 16 A 34 34 0 0 1 84 50 L 84 84 L 50 84 A 34 34 0 0 1 16 50 Z" fill="none" stroke="#7BAA94" stroke-width="8" stroke-linejoin="round" stroke-linecap="round"/><text x="45" y="64" font-size="44" font-weight="700" fill="#232A32" text-anchor="middle">n</text><circle cx="64" cy="59" r="5.5" fill="#F5B52E"/></g><text x="72" y="55" font-size="30" font-weight="800" fill="#232A32">nudge</text>
  <rect x="0" y="1272" width="0" height="8" fill="#7BAA94"><animate attributeName="width" values="0;720" dur="12s" repeatCount="indefinite"/></rect>
</svg>