<svg xmlns="http://www.w3.org/2000/svg" viewBox="0 0 720 1280" width="720" height="1280" font-family="Inter, Arial, sans-serif">
  <rect width="720" height="1280" fill="#F8F7F4"/>
  <g opacity="0"><animate attributeName="opacity" values="0;0;1;1;0;0" keyTimes="0.000;0.000;0.020;0.303;0.333;1.000" dur="12s" repeatCount="indefinite"/><rect x="40" y="220" width="640" height="230" rx="20" fill="#FFFFFF" stroke="#E9E9E3" stroke-width="2"/><text x="72" y="300" font-size="32" font-weight="800" fill="#232A32">Dentist check-up</text><text x="72" y="346" font-size="26" fill="#667085">Tue 9:30</text><rect x="72" y="372" width="150" height="58" rx="13" fill="#7BAA94"/><text x="147" y="410" font-size="24" font-weight="800" fill="#FFFFFF" text-anchor="middle">Done</text><rect x="236" y="372" width="170" height="58" rx="13" fill="#FFFFFF" stroke="#E9E9E3" stroke-width="2"/><text x="321" y="410" font-size="24" font-weight="800" fill="#232A32" text-anchor="middle">Snooze</text><rect x="420" y="372" width="140" height="58" rx="13" fill="#FFFFFF" stroke="#E9E9E3" stroke-width="2"/><text x="490" y="410" font-size="24" font-weight="800" fill="#232A32" text-anchor="middle">Edit</text><circle cx="321" cy="401" r="34" fill="#232A32" opacity="0.16"/><circle cx="321" cy="401" r="22" fill="#232A32" opacity="0.30"/><rect x="40" y="1120" width="640" height="120" rx="22" fill="#232A32"/><circle cx="96" cy="1180" r="30" fill="#F5B52E"/><text x="96" y="1192" font-size="34" font-weight="800" fill="#232A32" text-anchor="middle">1</text><text x="150" y="1190" font-size="28" font-weight="700" fill="#ECE6D6">Tap Snooze on any task</text></g>
  <g opacity="0"><animate attributeName="opacity" values="0;0;1;1;0;0" keyTimes="0.000;0.333;0.353;0.637;0.667;1.000" dur="12s" repeatCount="indefinite"/><rect x="40" y="220" width="640" height="380" rx="20" fill="#FFFFFF" stroke="#E9E9E3" stroke-width="2"/><text x="72" y="290" font-size="28" font-weight="800" fill="#232A32">Remind me again…</text><rect x="72" y="320" width="576" height="52" rx="12" fill="#F8F7F4"/><text x="96" y="356" font-size="26" font-weight="700" fill="#232A32">This evening</text><rect x="72" y="384" width="576" height="52" rx="12" fill="#EDF2EF"/><text x="96" y="420" font-size="26" font-weight="700" fill="#232A32">Tomorrow morning</text><rect x="72" y="448" width="576" height="52" rx="12" fill="#F8F7F4"/><text x="96" y="484" font-size="26" font-weight="700" fill="#232A32">This weekend</text><rect x="72" y="512" width="576" height="52" rx="12" fill="#F8F7F4"/><text x="96" y="548" font-size="26" font-weight="700" fill="#232A32">Next week</text><circle cx="360" cy="410" r="34" fill="#232A32" opacity="0.16"/><circle cx="360" cy="410" r="22" fill="#232A32" opacity="0.30"/><rect x="40" y="1120" width="640" height="120" rx="22" fill="#232A32"/><circle cx="96" cy="1180" r="30" fill="#F5B52E"/><text x="96" y="1192" font-size="34" font-weight="800" fill="#232A32" text-anchor="middle">2</text><text x="150" y="1190" font-size="28" font-weight="700" fill="#ECE6D6">Pick when to be nudged again</text></g>
  <g opacity="0"><animate attributeName="opacity" values="0;0;1;1;0;0" keyTimes="0.000;0.667;0.687;0.970;1.000;1.000" dur="12s" repeatCount="indefinite"/><rect x="40" y="360" width="640" height="150" rx="20" fill="#FFFFFF" stroke="#E9E9E3" stroke-width="2"/><circle cx="86" cy="416" r="20" fill="none" stroke="#7BAA94" stroke-width="5"/><path d="M 73 416 l 8 10 l 18 -22" fill="none" stroke="#7BAA94" stroke-width="6" stroke-linecap="round" stroke-linejoin="round"/><text x="124" y="426" font-size="32" font-weight="800" fill="#232A32">Dentist check-up</text><text x="124" y="472" font-size="26" fill="#667085">snoozed → tomorrow morning</text><rect x="472" y="398" width="168" height="50" rx="13" fill="#7BAA94"/><text x="556" y="432" font-size="24" font-weight="800" fill="#FFFFFF" text-anchor="middle">TOMORROW</text><rect x="40" y="1120" width="640" height="120" rx="22" fill="#232A32"/><circle cx="96" cy="1180" r="30" fill="#F5B52E"/><text x="96" y="1192" font-size="34" font-weight="800" fill="#232A32" text-anchor="middle">3</text><text x="150" y="1190" font-size="28" font-weight="700" fill="#ECE6D6">It steps aside until then</text></g>
  <rect x="0" y="0" width="720" height="86" fill="#FFFFFF"/><line x1="0" y1="86" x2="720" y2="86" stroke="#E9E9E3" stroke-width="2"/><g transform="translate(28,22) scale(0.46)"><path d="M 16 16 L 50 16 A 34 34 0 0 1 84 50 L 84 84 L 50 84 A 34 34 0 0 1 16 50 Z" fill="none" stroke="#7BAA94" stroke-width="8" stroke-linejoin="round" stroke-linecap="round"/><text x="45" y="64" font-size="44" font-weight="700" fill="#232A32" text-anchor="middle">n</text><circle cx="64" cy="59" r="5.5" fill="#F5B52E"/></g><text x="72" y="55" font-size="30" font-weight="800" fill="#232A32">nudge</text>
  <rect x="0" y="1272" width="0" height="8" fill="#7BAA94"><animate attributeName="width" values="0;720" dur="12s" repeatCount="indefinite"/></rect>
</svg>